<?xml version="1.0" encoding="utf-8"?>
<!-- Generator: Adobe Illustrator 23.0.4, SVG Export Plug-In . SVG Version: 6.00 Build 0)  -->
<svg version="1.1" id="Layer_1" xmlns="http://www.w3.org/2000/svg" xmlns:xlink="http://www.w3.org/1999/xlink" x="0px" y="0px"
	 viewBox="0 0 321.9 349" style="enable-background:new 0 0 321.9 349;" xml:space="preserve">
<style type="text/css">
	.st0{display:none;}
	.st1{display:inline;}
	.st2{fill:none;stroke:#000000;stroke-width:5;stroke-miterlimit:10;}
	.st3{display:inline;fill:none;}
</style>
<g class="st0">
	<g class="st1">
		<circle class="st2" cx="-580.1" cy="170.1" r="90"/>
		<path d="M-510.8,229.5c0,2-1.6,3.5-3.6,3.5h-86.9c-2,0-3.6-1.6-3.6-3.5c0-2,1.6-3.5,3.6-3.5h86.9
			C-512.4,225.9-510.8,227.5-510.8,229.5L-510.8,229.5z"/>
		<g>
			<path d="M-617.2,176.7c2.5-1.4,5.3-1.2,6.2,0.5l25.5,45c1,1.7-0.3,4.2-2.7,5.6c-2.5,1.4-5.3,1.2-6.2-0.5l-25.5-45
				C-620.9,180.6-619.7,178.1-617.2,176.7z M-624.5,181.7c2.6,1.1,4.2,3.3,3.5,5l-18.4,46c-0.7,1.7-3.4,2.3-6,1.2s-4.2-3.3-3.5-5
				l18.4-46C-629.9,181.2-627.2,180.7-624.5,181.7z M-618,131.8c2.1-1,4.3-0.8,4.9,0.6l17.6,35.5c0.7,1.3-0.5,3.2-2.5,4.3
				c-2.1,1-4.3,0.8-4.9-0.6l-17.6-35.5C-621.2,134.7-620.1,132.8-618,131.8z M-625.9,130.5c2,1.1,3.1,3.1,2.4,4.4l-19,34.8
				c-0.7,1.3-2.9,1.5-5,0.4c-2-1.1-3.1-3.1-2.4-4.4l19-34.8C-630.2,129.6-628,129.4-625.9,130.5z M-610.8,184.7c0,1-0.9,1.9-2,1.9
				h-15.5c-1.1,0-2-0.8-2-1.9v-53.3c0-1,0.9-1.9,2-1.9h15.5c1.1,0,2,0.8,2,1.9V184.7z"/>
			<circle cx="-620.4" cy="117.1" r="8.4"/>
		</g>
		<g>
			<path d="M-574.5,210.4c1-2.2,0.3-4.6-1.6-5.5l-0.2-0.1c-1.9-0.9-4.2,0.1-5.2,2.3l-8,17c-1,2.2-0.3,4.6,1.6,5.5l0.2,0.1
				c1.9,0.9,4.2-0.1,5.2-2.3L-574.5,210.4z M-562.7,207.7c-1.2-2.2-3.6-3.3-5.5-2.3l-0.2,0.1c-1.8,1-2.4,3.6-1.2,5.8l9.4,17.7
				c1.2,2.2,3.6,3.3,5.5,2.3l0.2-0.1c1.8-1,2.4-3.6,1.2-5.8L-562.7,207.7z M-537.2,209.5c0-2.1-1.7-3.8-3.8-3.8h-0.2
				c-2.1,0-3.8,1.7-3.8,3.8v16.4c0,2.1,1.7,3.8,3.8,3.8h0.2c2.1,0,3.8-1.7,3.8-3.8V209.5z M-530.2,208c-0.9-2.2-3.2-3.3-5.1-2.5
				l-0.2,0.1c-1.9,0.8-2.7,3.2-1.8,5.4l7.2,17.4c0.9,2.2,3.2,3.3,5.1,2.5l0.2-0.1c1.9-0.8,2.7-3.2,1.8-5.4L-530.2,208z
				 M-529.4,206.4c0,2.1-1.7,3.9-3.8,3.9h-46.2c-2.1,0-3.8-1.7-3.8-3.9v-12c0-2.1,1.7-3.9,3.8-3.9h46.2c2.1,0,3.8,1.7,3.8,3.9V206.4
				z M-585.7,184.1c-1.2-1.3-2.9-1.7-3.7-1l-0.1,0.1c-0.9,0.8-0.6,2.5,0.7,3.8l9.6,10.4c1.2,1.3,2.9,1.7,3.7,1l0.1-0.1
				c0.9-0.8,0.6-2.5-0.7-3.8L-585.7,184.1z M-514,190.3c0,2.9-2.4,5.3-5.3,5.3h-9.1c-2.9,0-5.3-2.4-5.3-5.3s2.4-5.3,5.3-5.3h9.1
				C-516.4,185-514,187.4-514,190.3z M-527.3,189.3c1.8,2.2,2.2,4.9,0.9,5.9l-4,3.2c-1.3,1-3.8,0.1-5.6-2.2
				c-1.8-2.2-2.2-4.9-0.9-5.9l4-3.2C-531.5,186.1-529.1,187-527.3,189.3z M-532.6,188.8l4.4-8.4l4.4,8.4H-532.6z"/>
			<ellipse cx="-528.2" cy="186" rx="2.3" ry="5.6"/>
			<path d="M-528.2,188.8l4.6-8.4l4.5,8.4H-528.2z"/>
			<ellipse cx="-523.7" cy="186" rx="2.2" ry="5.6"/>
		</g>
	</g>
	<path class="st3" d="M-702.6,175.1c0,67.7,54.8,122.5,122.5,122.5s122.5-54.8,122.5-122.5v-1.7"/>
	
		<text transform="matrix(0.5966 0.8025 -0.8025 0.5966 -710.4125 252.0593)" class="st1" style="font-family:'ArialMT'; font-size:56.0341px;">b</text>
	
		<text transform="matrix(0.5966 0.8025 -0.8025 0.5966 -684.4924 284.4077)" class="st1" style="font-family:'ArialMT'; font-size:56.0341px;">a</text>
	
		<text transform="matrix(0.5966 0.8025 -0.8025 0.5966 -654.9036 305.9252)" class="st1" style="font-family:'ArialMT'; font-size:56.0341px;">l</text>
	
		<text transform="matrix(0.5966 0.8025 -0.8025 0.5966 -633.114 316.2828)" class="st1" style="font-family:'ArialMT'; font-size:56.0341px;">t</text>
	
		<text transform="matrix(0.5966 0.8025 -0.8025 0.5966 -603.8485 323.9504)" class="st1" style="font-family:'ArialMT'; font-size:56.0341px;">i</text>
	
		<text transform="matrix(0.5966 0.8025 -0.8025 0.5966 -578.4281 327.6196)" class="st1" style="font-family:'ArialMT'; font-size:56.0341px;">m</text>
	
		<text transform="matrix(0.5966 0.8025 -0.8025 0.5966 -520.2147 314.015)" class="st1" style="font-family:'ArialMT'; font-size:56.0341px;">o</text>
	
		<text transform="matrix(0.5966 0.8025 -0.8025 0.5966 -487.8336 294.6795)" class="st1" style="font-family:'ArialMT'; font-size:56.0341px;">r</text>
	
		<text transform="matrix(0.5966 0.8025 -0.8025 0.5966 -464.8289 272.962)" class="st1" style="font-family:'ArialMT'; font-size:56.0341px;">e</text>
	<path class="st3" d="M-702.6,175.1c0-67.7,54.8-122.5,122.5-122.5c67.1,0,121.6,53.9,122.5,120.8"/>
	
		<text transform="matrix(0.4121 -0.9112 0.9112 0.4121 -701.8217 146.813)" class="st1" style="font-family:'ArialMT'; font-size:55.9906px;">w</text>
	
		<text transform="matrix(0.4121 -0.9112 0.9112 0.4121 -681.19 104.3496)" class="st1" style="font-family:'ArialMT'; font-size:55.9906px;">a</text>
	
		<text transform="matrix(0.4121 -0.9112 0.9112 0.4121 -660.8267 82.6143)" class="st1" style="font-family:'ArialMT'; font-size:55.9906px;">l</text>
	
		<text transform="matrix(0.4121 -0.9112 0.9112 0.4121 -647.608 71.5842)" class="st1" style="font-family:'ArialMT'; font-size:55.9906px;">k</text>
	
		<text transform="matrix(0.4121 -0.9112 0.9112 0.4121 -604.1078 54.4959)" class="st1" style="font-family:'ArialMT'; font-size:55.9906px;">t</text>
	
		<text transform="matrix(0.4121 -0.9112 0.9112 0.4121 -582.6161 51.3766)" class="st1" style="font-family:'ArialMT'; font-size:55.9906px;">h</text>
	
		<text transform="matrix(0.4121 -0.9112 0.9112 0.4121 -548.7473 55.8312)" class="st1" style="font-family:'ArialMT'; font-size:55.9906px;">e</text>
	
		<text transform="matrix(0.4121 -0.9112 0.9112 0.4121 -510.5357 73.0031)" class="st1" style="font-family:'ArialMT'; font-size:55.9906px;">d</text>
	
		<text transform="matrix(0.4121 -0.9112 0.9112 0.4121 -487.5422 93.4971)" class="st1" style="font-family:'ArialMT'; font-size:55.9906px;">o</text>
	
		<text transform="matrix(0.4121 -0.9112 0.9112 0.4121 -470.5485 118.5197)" class="st1" style="font-family:'ArialMT'; font-size:55.9906px;">g</text>
</g>
<g class="st0">
	<g class="st1">
		<circle class="st2" cx="-580.1" cy="540.2" r="90"/>
		<path d="M-510.8,599.7c0,2-1.6,3.5-3.6,3.5h-86.9c-2,0-3.6-1.6-3.6-3.5c0-2,1.6-3.5,3.6-3.5h86.9
			C-512.4,596.1-510.8,597.7-510.8,599.7L-510.8,599.7z"/>
		<g>
			<path d="M-617.2,546.9c2.5-1.4,5.3-1.2,6.2,0.5l25.5,45c1,1.7-0.3,4.2-2.7,5.6c-2.5,1.4-5.2,1.2-6.2-0.5l-25.5-45
				C-620.9,550.8-619.7,548.3-617.2,546.9z M-624.5,551.9c2.6,1.1,4.2,3.3,3.5,5l-18.4,46c-0.7,1.7-3.4,2.3-6,1.2s-4.2-3.3-3.5-5
				l18.4-46C-629.9,551.4-627.2,550.8-624.5,551.9z M-618,501.9c2.1-1,4.3-0.8,4.9,0.6l17.6,35.5c0.7,1.3-0.5,3.2-2.5,4.3
				c-2.1,1-4.3,0.8-4.9-0.6l-17.6-35.5C-621.2,504.9-620.1,503-618,501.9L-618,501.9z M-625.9,500.7c2,1.1,3.1,3.1,2.4,4.4l-19,34.8
				c-0.7,1.3-2.9,1.5-5,0.4c-2-1.1-3.1-3.1-2.4-4.4l19-34.8C-630.2,499.8-628,499.6-625.9,500.7L-625.9,500.7z M-610.8,554.9
				c0,1-0.9,1.9-2,1.9h-15.5c-1.1,0-2-0.8-2-1.9v-53.3c0-1,0.9-1.9,2-1.9h15.5c1.1,0,2,0.8,2,1.9V554.9z"/>
			<circle cx="-620.4" cy="487.3" r="8.4"/>
		</g>
		<g>
			<path d="M-574.5,580.6c1-2.2,0.3-4.6-1.6-5.5l-0.2-0.1c-1.9-0.9-4.2,0.1-5.2,2.3l-8,17c-1,2.2-0.3,4.6,1.6,5.5l0.2,0.1
				c1.9,0.9,4.2-0.1,5.2-2.3L-574.5,580.6z M-562.7,577.9c-1.2-2.2-3.6-3.3-5.5-2.3l-0.2,0.1c-1.8,1-2.4,3.6-1.2,5.8l9.4,17.7
				c1.2,2.2,3.6,3.3,5.5,2.3l0.2-0.1c1.8-1,2.4-3.6,1.2-5.8L-562.7,577.9z M-537.2,579.6c0-2.1-1.7-3.8-3.8-3.8h-0.2
				c-2.1,0-3.8,1.7-3.8,3.8V596c0,2.1,1.7,3.8,3.8,3.8h0.2c2.1,0,3.8-1.7,3.8-3.8V579.6z M-530.2,578.2c-0.9-2.2-3.2-3.3-5.1-2.5
				l-0.2,0.1c-1.9,0.8-2.7,3.2-1.8,5.4l7.2,17.4c0.9,2.2,3.2,3.3,5.1,2.5l0.2-0.1c1.9-0.8,2.7-3.2,1.8-5.4L-530.2,578.2z
				 M-529.4,576.6c0,2.1-1.7,3.9-3.8,3.9h-46.2c-2.1,0-3.8-1.7-3.8-3.9v-12c0-2.1,1.7-3.9,3.8-3.9h46.2c2.1,0,3.8,1.7,3.8,3.9V576.6
				z M-585.7,554.3c-1.2-1.3-2.9-1.7-3.7-1l-0.1,0.1c-0.9,0.8-0.6,2.5,0.7,3.8l9.6,10.4c1.2,1.3,2.9,1.7,3.7,1l0.1-0.1
				c0.9-0.8,0.6-2.5-0.7-3.8L-585.7,554.3z M-514,560.5c0,2.9-2.4,5.3-5.3,5.3h-9.1c-2.9,0-5.3-2.4-5.3-5.3s2.4-5.3,5.3-5.3h9.1
				C-516.4,555.2-514,557.6-514,560.5z M-527.3,559.5c1.8,2.2,2.2,4.9,0.9,5.9l-4,3.2c-1.3,1-3.8,0.1-5.6-2.2
				c-1.8-2.2-2.2-4.9-0.9-5.9l4-3.2C-531.5,556.3-529.1,557.2-527.3,559.5z M-532.6,559l4.4-8.5l4.4,8.5H-532.6z M-525.9,556.2
				c0,3.1-1,5.6-2.3,5.6s-2.3-2.5-2.3-5.6s1-5.6,2.3-5.6S-525.9,553.1-525.9,556.2z M-528.2,559l4.6-8.5l4.5,8.5H-528.2z"/>
			<ellipse cx="-523.7" cy="556.2" rx="2.2" ry="5.6"/>
		</g>
	</g>
	<path class="st3" d="M-702.6,543.2c0,67.7,54.8,122.5,122.5,122.5s122.5-54.8,122.5-122.5v-1.7"/>
	
		<text transform="matrix(0.617 0.787 -0.787 0.617 -712.0344 625.387)" class="st1" style="font-family:'HelveticaNeue'; font-size:56px;">b</text>
	
		<text transform="matrix(0.617 0.787 -0.787 0.617 -685.1584 657.5603)" class="st1" style="font-family:'HelveticaNeue'; font-size:56px;">a</text>
	
		<text transform="matrix(0.617 0.787 -0.787 0.617 -651.926 680.1748)" class="st1" style="font-family:'HelveticaNeue'; font-size:56px;">l</text>
	
		<text transform="matrix(0.617 0.787 -0.787 0.617 -630.4807 689.5383)" class="st1" style="font-family:'HelveticaNeue'; font-size:56px;">t</text>
	
		<text transform="matrix(0.617 0.787 -0.787 0.617 -602.6506 696.1846)" class="st1" style="font-family:'HelveticaNeue'; font-size:56px;">i</text>
	
		<text transform="matrix(0.617 0.787 -0.787 0.617 -579.0959 697.541)" class="st1" style="font-family:'HelveticaNeue'; font-size:56px;">m</text>
	
		<text transform="matrix(0.617 0.787 -0.787 0.617 -523.5871 687.9507)" class="st1" style="font-family:'HelveticaNeue'; font-size:56px;">o</text>
	
		<text transform="matrix(0.617 0.787 -0.787 0.617 -487.9943 667.5437)" class="st1" style="font-family:'HelveticaNeue'; font-size:56px;">r</text>
	
		<text transform="matrix(0.617 0.787 -0.787 0.617 -464.9611 647.3257)" class="st1" style="font-family:'HelveticaNeue'; font-size:56px;">e</text>
	<path class="st3" d="M-702.6,543.2c0-67.7,54.8-122.5,122.5-122.5c67.1,0,121.6,53.9,122.5,120.8"/>
	
		<text transform="matrix(0.399 -0.917 0.917 0.399 -700.9603 513.8353)" class="st1" style="font-family:'HelveticaNeue'; font-size:56.0025px;">w</text>
	
		<text transform="matrix(0.399 -0.917 0.917 0.399 -683.8793 476.334)" class="st1" style="font-family:'HelveticaNeue'; font-size:56.0025px;">a</text>
	
		<text transform="matrix(0.399 -0.917 0.917 0.399 -663.2659 453.022)" class="st1" style="font-family:'HelveticaNeue'; font-size:56.0025px;">l</text>
	
		<text transform="matrix(0.399 -0.917 0.917 0.399 -653.1436 443.7932)" class="st1" style="font-family:'HelveticaNeue'; font-size:56.0025px;">k</text>
	
		<text transform="matrix(0.399 -0.917 0.917 0.399 -610.5678 424.1479)" class="st1" style="font-family:'HelveticaNeue'; font-size:56.0025px;">t</text>
	
		<text transform="matrix(0.399 -0.917 0.917 0.399 -591.874 420.2835)" class="st1" style="font-family:'HelveticaNeue'; font-size:56.0025px;">h</text>
	
		<text transform="matrix(0.399 -0.917 0.917 0.399 -562.7255 420.9702)" class="st1" style="font-family:'HelveticaNeue'; font-size:56.0025px;">e</text>
	
		<text transform="matrix(0.399 -0.917 0.917 0.399 -517.8357 436.3586)" class="st1" style="font-family:'HelveticaNeue'; font-size:56.0025px;">d</text>
	
		<text transform="matrix(0.399 -0.917 0.917 0.399 -492.2736 456.3141)" class="st1" style="font-family:'HelveticaNeue'; font-size:56.0025px;">o</text>
	
		<text transform="matrix(0.399 -0.917 0.917 0.399 -472.575 482.2267)" class="st1" style="font-family:'HelveticaNeue'; font-size:56.0025px;">g</text>
</g>
<g>
	<g>
		<circle class="st2" cx="160.9" cy="179.4" r="99.2"/>
		<path d="M237.4,244.9c0,2.2-1.8,3.9-3.9,3.9h-95.8c-2.2,0-3.9-1.7-3.9-3.9c0-2.1,1.8-3.9,3.9-3.9h95.8
			C235.6,241,237.4,242.7,237.4,244.9z"/>
		<g>
			<path d="M120.1,186.7c2.7-1.5,5.8-1.3,6.8,0.6l28.1,49.6c1.1,1.9-0.3,4.6-3,6.2c-2.7,1.5-5.8,1.3-6.8-0.6L117,192.9
				C116,191,117.3,188.3,120.1,186.7z M112,192.2c2.9,1.2,4.6,3.6,3.9,5.5l-20.2,50.7c-0.8,1.9-3.7,2.5-6.6,1.3s-4.6-3.6-3.9-5.5
				l20.2-50.7C106.1,191.6,109.1,191,112,192.2z M119.2,137.2c2.3-1.1,4.7-0.9,5.4,0.6l19.4,39.1c0.7,1.5-0.5,3.6-2.8,4.7
				s-4.7,0.9-5.4-0.6l-19.4-39.1C115.7,140.4,116.9,138.3,119.2,137.2z M110.4,135.8c2.2,1.2,3.4,3.4,2.6,4.8L92.1,179
				c-0.8,1.4-3.2,1.6-5.5,0.4c-2.2-1.2-3.4-3.4-2.6-4.8l20.9-38.3C105.8,134.8,108.2,134.6,110.4,135.8L110.4,135.8z M127.1,195.5
				c0,1.1-1,2.1-2.2,2.1h-17.1c-1.2,0-2.2-0.9-2.2-2.1v-58.7c0-1.1,1-2.1,2.2-2.1h17.1c1.2,0,2.2,0.9,2.2,2.1V195.5z"/>
			<circle cx="116.6" cy="121" r="9.3"/>
		</g>
		<path d="M227.9,195.9H226l-0.5-1c-0.3-2.3-1.2-3.9-2.2-4.1l-0.1-0.1l-0.1,0.1c0,0,0,0,0,0c-1.2,0-2.1,1.9-2.4,4.6l-0.1,0.1l0,0
			c-0.3-2.7-1.3-4.7-2.4-4.7c0,0,0,0,0,0l-0.1-0.1l-0.1,0.1c-1,0.2-1.9,1.9-2.2,4.2l-0.9,1.7c-0.6,0.3-1.1,0.8-1.6,1.3
			c-0.1,0.1-0.2,0.1-0.3,0.2l-4.4,3.5c0,0,0,0,0,0.1H162c-0.3,0-0.6,0-0.9,0.1l-6.4-6.8c-1.3-1.5-3.2-1.9-4.1-1l-0.1,0.1
			c-0.9,0.9-0.6,2.8,0.7,4.2l6.3,6.8c-0.1,0.4-0.2,0.9-0.2,1.4v12.9c0,0.7,0.2,1.4,0.5,2c0.1,0.4,0.4,0.7,0.6,1l0,0
			c0.6,0.8,1.5,1.4,2.6,1.6c-1-0.2-1.9-0.7-2.6-1.6l-7.8,16.6c-1.1,2.4-0.3,5.1,1.7,6.1l0.2,0.1c2.1,1,4.7-0.2,5.8-2.5l8.8-18.7h5.2
			c0.1,0.4,0.2,0.7,0.4,1l10.3,19.5c1.3,2.5,4,3.6,6,2.5l0.2-0.1c2-1.1,2.6-3.9,1.3-6.4l-8.7-16.5h17.7v17.1c0,2.3,1.9,4.2,4.2,4.2
			h0.3c2.3,0,4.2-1.9,4.2-4.2v-16.2l7.8,19c1,2.4,3.5,3.7,5.7,2.8l0.2-0.1c2.1-0.9,3-3.6,2-6l-7.7-18.7c-0.6,1.1-1.7,1.8-2.9,2
			c1.2-0.3,2.3-1,2.9-2l0,0c0.1-0.2,0.2-0.3,0.3-0.5c0.3-0.6,0.5-1.3,0.5-2v-9.7l2.5-2h8.4c3.3,0,5.9-2.6,5.9-5.8
			C233.8,198.5,231.2,195.9,227.9,195.9z"/>
	</g>
	<path d="M57.1,250.1l-13,10.2c0.4,0.2,1.1-0.1,1.6-0.1c0.8,0,1.5,0.1,2.2,0.3c1.4,0.4,2.7,1.2,3.9,2.1c2.3,1.9,4.2,4.4,5.2,7.3
		c2.1,6.4-1.2,12.8-6.1,16.8c-4.9,4.1-11.6,6.5-17.7,3.5c-5.2-2.6-9.6-9.6-7.4-15.4l-0.1-0.1l-3.4,2.6l-3.2-4.1L53.9,246
		C53.9,246,57.1,250.1,57.1,250.1z M50.2,279.4c1.8-2.4,2.7-5.5,1.9-8.5c-0.7-2.5-2.7-5-5.1-6.2c-5.6-2.6-12,1.4-15.4,5.8
		c-1.8,2.3-2.7,5.3-2.1,8.2c0.6,2.7,2.6,5.4,5.1,6.6C40.1,288.1,47,283.8,50.2,279.4C51.1,278.2,49.4,280.6,50.2,279.4z M72,324.6
		c-1.8-0.2-3.9-1.5-4.9-3.1c-1.1-1.8-0.4-3.6,0.8-5.1c-6.1,1.4-13.4-2-16.1-7.7c-2.9-6,2.9-13.2,9.3-12.3c3.2,0.4,6.3,2.2,9.1,3.8
		c2.1,1.2,5.9,4,8.2,1.8c2.6-2.5,1.7-5.7-0.6-7.9c-1.9-1.8-4.9-3.9-7.7-3.5c-1.3,0.2-2.5,1.1-3.4,2c-0.4,0.5-0.7,0-1.2-0.4
		c-1.1-0.8-2.2-1.6-3.3-2.5c1.9-2.3,4.5-4,7.6-4.1c3.3-0.1,6.3,1.4,8.9,3.2c2.5,1.8,5.2,4,6.4,7c1.1,2.7,0.3,5.4-1.4,7.7
		c-3.2,4.3-6.4,8.5-9.7,12.8c-0.1,0.1-0.1,0.2-0.2,0.2c-0.5,0.7-1.4,1.7-1.5,2.6c-0.2,1.1,1.4,1.7,2.1,2.1
		C73.7,322.5,72.8,323.5,72,324.6C71,324.5,72,324.6,72,324.6L72,324.6z M75.1,306.4c-2.2,0-4.3-1.4-6.1-2.5c-2-1.2-4.2-2.6-6.6-2.9
		c-2.2-0.3-4.1,0.8-5.2,2.8c-1.3,2.3,0.2,4.7,1.9,6.2c3.3,2.9,9.2,4.7,12.5,0.9C72.9,309.5,74,307.9,75.1,306.4
		C74.3,306.4,75.1,306.4,75.1,306.4z M110.3,294.6l-18.9,39.8l-4.7-2.3l18.9-39.8L110.3,294.6z M132.1,314.7l-1.3,4.5l-6.1-1.7
		c-1.1,3.8-2.2,7.7-3.2,11.5c-0.6,2.1-1.2,4.3-1.8,6.4c-0.1,0.4-0.2,0.8-0.3,1.1c-0.2,0.8-0.5,1.8,0.1,2.5c0.6,0.8,2,1.1,3,1.3
		l2.3,0.7l-1.3,4.5c-1.8-0.5-3.6-0.9-5.3-1.5c-1.6-0.5-3.3-1.3-4.1-2.9c-0.8-1.7-0.3-3.7,0.1-5.4l5.5-19.5l-5.2-1.5l1.3-4.5l5.2,1.5
		l2.6-9.2l5,1.4l-2.6,9.2L132.1,314.7z M150,317.2l-3.3,31.7l-5.2-0.5l3.3-31.7L150,317.2z M145.4,311l0.7-6.4l5.2,0.6l-0.7,6.4
		L145.4,311z M166.7,316.5l0.8,4.6c0.5-0.3,0.8-1.4,1.1-1.9c0.5-0.7,1-1.4,1.7-2c1.3-1.3,3-2.2,4.8-2.7c4.2-1.2,9.2-0.7,11.4,3.5
		c1.9-4.6,6.3-6.9,11.1-7.2c2.4-0.1,5,0.3,6.9,1.9c1.7,1.5,2.6,3.6,3,5.8l3.7,23.1l-5.2,0.8c-0.9-5.4-1.7-10.8-2.6-16.2
		c-0.4-2.4-0.6-4.9-1.4-7.2c-2.2-6-11.3-3.4-13.1,1.6c-0.5,1.4-0.6,3-0.3,4.5l3.2,19.6l-5.2,0.8c-0.9-5.4-1.7-10.8-2.6-16.2
		c-0.4-2.3-0.6-4.7-1.3-6.9c-1.1-3.1-3.7-4.1-6.8-3.5c-3,0.6-5.3,2.7-6.3,5.5c-0.4,1.2-0.7,2.6-0.5,3.8l3.2,19.6l-5.2,0.8l-5.1-31.5
		L166.7,316.5L166.7,316.5z M216.8,317.4c-1.1-6.7,2.3-12.6,8.2-15.7c5.8-3,12.5-2.4,17.3,2.1c4.5,4.3,7.5,11.3,6.2,17.6
		c-1.4,6.2-7.1,10.7-13.2,11.7C225.7,334.7,218.2,326.1,216.8,317.4C216.5,315.3,217.2,319.5,216.8,317.4z M226.9,325.4
		c2.1,2,4.9,3.2,7.9,2.9c3-0.3,5.8-2.1,7.3-4.7c2.9-5.1,0.3-12-3.6-15.8c-2.1-2-4.9-3.3-7.9-3s-5.8,2.1-7.3,4.7
		C220.4,314.6,223,321.6,226.9,325.4C228.1,326.5,225.8,324.3,226.9,325.4z M249.7,286.4l4.3,5.2c0.2-0.1-0.4-2.8-0.4-3.3
		c-0.1-1.3,0-2.6,0.3-3.9c0.7-2.5,2.4-4.6,4.4-6.2c0.8,0.9,1.6,1.9,2.3,2.8c0.4,0.4,0.7,0.9,1.1,1.3c0.2,0.3-0.3,0.5-0.5,0.7
		c-0.6,0.5-1.1,1.1-1.6,1.6c-1.8,2.1-2.8,4.8-2.3,7.6s2.2,5.3,4,7.5l9.1,10.9l-4,3.4l-20.5-24.4L249.7,286.4L249.7,286.4z
		 M303,271.6c0.1,6-4.5,12.1-9.9,14.3c-6.2,2.5-13.5-0.6-18.1-5.1s-6.6-11.5-3.7-17.5c1.3-2.7,3.4-5.2,6-6.6
		c2.8-1.6,6.3-1.8,9.4-1.2c3.4,0.7,6.7,2.4,9.4,4.6c-3.2,4.3-6.3,8.5-9.5,12.8l-4.5,6l-0.3,0.3c-0.2,0.3,3.5,2,3.9,2.1
		c3,1,6.4,0.2,8.7-1.9c1.7-1.5,3.2-3.6,3.6-5.9c0.5-2.4-0.4-4.6-2-6.4c1-1.4,2.1-2.8,3.1-4.2C301.4,265.5,303,268.4,303,271.6
		C303,274.6,303,268.6,303,271.6L303,271.6z M285.8,260.4c-4.1-1-8.3,1-10.2,4.8c-2.1,4-0.7,8.6,2.6,11.4c3.6-4.9,7.3-9.8,10.9-14.7
		C288.1,261.2,287,260.7,285.8,260.4C284.6,260.1,287,260.7,285.8,260.4L285.8,260.4z M40.8,119.5L15,115.3v0.1l20.7,16l-2.3,5.2
		L0,133.3l2.3-5.3l26.8,3.8v-0.1L7.8,115.3l2.3-5.3l26.6,4.3v-0.1l-21.1-17l2.2-5L43,114.4L40.8,119.5z M68.3,80.8
		c-0.3,1.8-1.7,3.8-3.3,4.7c-1.8,1-3.6,0.2-5.1-1c1.1,6.1-2.7,13.2-8.4,15.7c-6.2,2.6-13-3.6-11.9-9.9c0.6-3.2,2.5-6.2,4.2-8.9
		c1.3-2,4.3-5.7,2.2-8.1c-2.3-2.7-5.6-2-7.9,0.3c-1.9,1.8-4.1,4.7-3.8,7.6c0.1,1.3,0.9,2.5,1.9,3.5c0.5,0.5-0.1,0.7-0.5,1.2
		c-0.9,1-1.7,2.1-2.6,3.1c-2.4-2.2-4-5.2-3.7-8.5s2.1-6.2,4.1-8.7c2-2.4,4.4-4.9,7.5-5.6c2.6-0.6,4.9,0.4,6.9,2.1
		c4.1,3.4,8.2,6.9,12.4,10.3l0.1,0.1c0.7,0.6,1.6,1.5,2.5,1.7c1.1,0.2,1.8-1.3,2.2-2C66.2,79.1,67.2,79.9,68.3,80.8
		C68.1,81.9,68.3,80.8,68.3,80.8z M50.3,76.9c-0.1,2.2-1.7,4.2-2.8,5.9c-1.3,2-2.8,4.1-3.2,6.5c-0.4,2.2,0.6,4.2,2.5,5.3
		c2.3,1.4,4.7,0.1,6.3-1.6c3-3.1,5.2-8.9,1.5-12.5C53.2,79.2,51.7,78.1,50.3,76.9C50.2,77.7,50.3,76.9,50.3,76.9z M49.6,40
		l28.2,33.9l-4,3.4L45.5,43.4C45.5,43.4,49.6,40,49.6,40z M68.1,26.8L81,49.5l5.8-19.3l6.1-3.5L87.6,43l21.8,11l-5.8,3.3l-17.7-9.1
		l-2,6.4l6,10.5l-4.6,2.6L63.5,29.4C63.5,29.4,68.1,26.8,68.1,26.8z M140.2,13.7l0.8,4.6l-6.3,1.1c0.7,3.9,1.4,7.9,2.1,11.8
		c0.4,2.2,0.8,4.4,1.2,6.5c0.1,0.4,0.1,0.8,0.2,1.2c0.1,0.8,0.3,1.8,1.1,2.2c0.9,0.4,2.3,0.1,3.2-0.1l2.4-0.4l0.8,4.6
		c-1.8,0.3-3.6,0.7-5.5,0.9c-1.6,0.2-3.6,0.3-4.9-0.8c-1.4-1.2-1.9-3.2-2.2-4.9l-3.6-20l-5.3,1l-0.8-4.6l5.3-1L127,6.4l5.2-0.9
		l1.7,9.4C133.9,14.9,140.2,13.7,140.2,13.7z M159.7,0.2L159.1,17c0.3-0.1,0.4-0.6,0.6-0.9c0.3-0.5,0.7-0.9,1.1-1.3
		c1-0.9,2.2-1.6,3.5-2.1c2.6-0.9,5.5-1,8.2-0.5c2.3,0.5,4.5,1.7,5.9,3.7c1.5,2.3,1.8,5.2,1.7,7.9l-0.7,21l-5.2-0.2
		c0.2-5.5,0.3-10.9,0.5-16.4c0.1-2.1,0.3-4.2,0.1-6.3c-0.6-6.3-9-7-13-3.4c-2.1,1.9-2.9,4.8-3,7.5l-0.6,18l-5.2-0.2l1.4-44
		C154.4-0.2,159.7,0.2,159.7,0.2z M207.3,49.6c-5.6,2.3-13,0.3-17-4.1c-4.3-4.7-4.3-12.2-2.1-17.9s7.3-10.3,13.6-10.5
		c6.2-0.3,12,3.3,14,9.2c1.4,4.1,1,8.6-0.2,12.7c-5.1-1.4-10.3-2.8-15.4-4.1c-2.4-0.7-4.8-1.3-7.3-2c-0.1,0-0.3-0.1-0.4-0.1
		c-0.4-0.1-0.6,4.3-0.5,4.7c0.3,3,2.2,5.7,4.9,7c2.1,1.1,4.8,1.7,7.2,1.1c2.2-0.5,3.9-2.1,4.9-4.1c1.7,0.4,3.3,0.9,5,1.3
		C212.5,45.9,210.3,48.4,207.3,49.6C204.5,50.8,210.1,48.5,207.3,49.6z M211.4,29.5c-0.6-4.2-4-7.3-8.2-7.8
		c-4.5-0.5-8.2,2.5-9.6,6.6l17.7,4.8C211.5,31.9,211.6,30.7,211.4,29.5S211.6,30.7,211.4,29.5z M252.1,78.5l2.7-3.4
		c-0.4-0.1-1.1,0.3-1.5,0.5c-0.7,0.2-1.5,0.3-2.2,0.3c-1.5,0-2.9-0.5-4.3-1.2c-2.6-1.2-5-3.2-6.6-5.6c-3.7-5.5-2.2-12.5,1.5-17.6
		c3.7-5.2,9.5-9.3,16.1-8c5.9,1.1,12.1,6.9,11.3,13.3l0.1,0.1L279.3,44l4.1,3.2l-27.1,34.7L252.1,78.5L252.1,78.5z M244.2,57.9
		c-1.1,2.7-1.3,5.7,0,8.4c1.2,2.5,3.9,4.6,6.6,5.1c6.2,1.2,11.6-4.4,13.7-9.7c1.1-2.7,1.2-5.7-0.2-8.3c-1.3-2.4-3.9-4.5-6.6-5
		C251.8,47.3,246.3,52.9,244.2,57.9C243.7,59.3,244.8,56.6,244.2,57.9z M278.6,72.6c6.4-2.2,12.8,0.1,16.9,5.4
		c4.1,5.4,4.5,12.4,0.5,18c-3.7,5.1-10.2,9.1-16.6,8.5c-6.2-0.6-11.5-5.8-13.3-11.6C263.4,83.8,270.5,75.4,278.6,72.6
		C280.6,71.8,276.6,73.3,278.6,72.6z M272.5,83.9c-3.4,5-1.8,12.1,4,14.5c5.6,2.3,12.2-1.5,15.3-6.2c1.7-2.6,2.4-5.7,1.5-8.6
		c-0.8-2.6-2.9-4.9-5.4-5.9C282.3,75.4,275.6,79.3,272.5,83.9C271.6,85.2,273.4,82.6,272.5,83.9z M282.6,141.5
		c-4.3-1.6-7-6.1-8.3-10.3c-1.7-5.2-1.4-11.8,4.2-14.4c0.6,1.4,1.1,2.8,1.7,4.2c0.1,0.2,0.2,0.4,0.2,0.6c-0.1-0.1-1.4,1.1-1.5,1.2
		c-1.1,1.4-1.2,3.3-1,5c0.4,3.3,2,6.8,5.1,8.3c3.3,1.7,7.2,0.7,10.5-0.6l1.9-0.8c-0.3-0.2-1-0.2-1.4-0.3c-0.7-0.1-1.3-0.3-1.9-0.6
		c-1.4-0.6-2.5-1.6-3.5-2.7c-2-2.3-3.2-5.4-3.4-8.5c-0.3-6.5,4.4-11.6,10-14.1c5.8-2.6,12.9-3,18,1.4c4.6,3.9,6.6,11.6,2.5,16.5v0.1
		l4.2-1.7l1.9,4.6c-9.1,3.7-18.3,7.5-27.4,11.1C290.7,142,286.4,142.9,282.6,141.5C279.3,140.2,285.9,142.7,282.6,141.5L282.6,141.5
		z M293.4,129.9c4.7,3.6,12,1.5,16.3-1.8c2.2-1.7,3.8-4.1,3.9-6.9c0.1-2.6-1.2-5.6-3.2-7.2c-4.8-4-12.1-1.5-16.5,1.9
		c-2.1,1.7-3.8,4.1-3.9,6.9C290,125.4,291.3,128.3,293.4,129.9C294.5,130.7,292.3,129,293.4,129.9L293.4,129.9z"/>
</g>
<g class="st0">
	<g class="st1">
		<circle class="st2" cx="-580.1" cy="915.1" r="116.8"/>
		<path d="M-490.1,992.2c0,2.5-2.1,4.6-4.6,4.6h-112.8c-2.6,0-4.6-2.1-4.6-4.6s2.1-4.6,4.6-4.6h112.8
			C-492.2,987.6-490.1,989.6-490.1,992.2z"/>
		<g>
			<path d="M-628.2,923.7c3.2-1.8,6.8-1.5,8.1,0.7l33.1,58.4c1.2,2.2-0.4,5.4-3.6,7.3c-3.2,1.8-6.8,1.5-8.1-0.7l-33.1-58.4
				C-633,928.8-631.4,925.5-628.2,923.7z M-637.8,930.2c3.4,1.4,5.5,4.3,4.6,6.5l-23.8,59.7c-0.9,2.2-4.4,2.9-7.8,1.6
				c-3.4-1.4-5.5-4.3-4.6-6.5l23.8-59.7C-644.7,929.5-641.2,928.8-637.8,930.2z M-629.3,865.3c2.7-1.3,5.5-1,6.4,0.7l22.9,46.1
				c0.9,1.7-0.6,4.2-3.3,5.5s-5.5,1-6.4-0.7l-22.9-46.1C-633.4,869.2-631.9,866.7-629.3,865.3z M-639.6,863.8c2.6,1.4,4,4,3.1,5.7
				l-24.6,45.2c-0.9,1.7-3.8,1.9-6.4,0.5c-2.6-1.4-4-4-3.1-5.7l24.6-45.2C-645.1,862.6-642.2,862.4-639.6,863.8z M-619.9,934
				c0,1.3-1.2,2.4-2.6,2.4h-20.2c-1.4,0-2.6-1.1-2.6-2.4v-69.2c0-1.4,1.2-2.4,2.6-2.4h20.2c1.5,0,2.6,1.1,2.6,2.4V934z"/>
			<circle cx="-632.4" cy="846.3" r="11"/>
		</g>
		<g>
			<path d="M-572.8,967.4c1.3-2.8,0.4-6-2-7.1l-0.3-0.1c-2.4-1.1-5.5,0.2-6.8,3l-10.4,22.1c-1.3,2.8-0.4,6,2,7.1l0.3,0.1
				c2.4,1.1,5.5-0.2,6.8-3L-572.8,967.4z M-557.5,963.9c-1.5-2.9-4.7-4.2-7.1-3l-0.3,0.1c-2.4,1.3-3.1,4.6-1.5,7.6l12.1,23
				c1.5,2.9,4.7,4.2,7.1,3l0.3-0.1c2.4-1.3,3.1-4.6,1.5-7.6L-557.5,963.9z M-524.4,966.2c0-2.7-2.2-4.9-4.9-4.9h-0.3
				c-2.7,0-4.9,2.2-4.9,4.9v21.3c0,2.7,2.2,4.9,4.9,4.9h0.3c2.7,0,4.9-2.2,4.9-4.9V966.2z M-515.3,964.4c-1.2-2.9-4.2-4.3-6.7-3.3
				l-0.3,0.1c-2.5,1-3.6,4.2-2.4,7l9.3,22.6c1.2,2.9,4.2,4.3,6.7,3.3l0.3-0.1c2.5-1,3.6-4.2,2.4-7L-515.3,964.4L-515.3,964.4z
				 M-514.3,962.3c0,2.8-2.2,5-4.9,5h-59.9c-2.7,0-4.9-2.2-4.9-5v-15.6c0-2.8,2.2-5,4.9-5h59.9c2.7,0,4.9,2.3,4.9,5V962.3z
				 M-587.3,933.3c-1.6-1.7-3.8-2.3-4.9-1.2l-0.1,0.1c-1.1,1-0.7,3.2,0.9,4.9l12.5,13.5c1.6,1.7,3.8,2.3,4.9,1.2l0.1-0.1
				c1.1-1,0.7-3.2-0.9-4.9L-587.3,933.3z M-494.3,941.4c0,3.8-3.1,6.9-6.9,6.9H-513c-3.8,0-6.9-3.1-6.9-6.9c0-3.8,3.1-6.9,6.9-6.9
				h11.8C-497.4,934.5-494.3,937.6-494.3,941.4L-494.3,941.4z M-511.5,940c2.3,2.9,2.8,6.3,1.1,7.7l-5.2,4.2
				c-1.7,1.3-4.9,0.1-7.2-2.8s-2.8-6.3-1.1-7.7l5.2-4.1C-517.1,935.8-513.8,937.1-511.5,940L-511.5,940z M-518.5,939.4l5.7-11
				l5.7,11H-518.5z M-509.8,935.8c0,4-1.3,7.3-3,7.3c-1.6,0-3-3.3-3-7.3s1.3-7.3,3-7.3S-509.8,931.8-509.8,935.8z M-512.7,939.4
				l5.9-11l5.8,11H-512.7z"/>
			<ellipse cx="-506.9" cy="935.8" rx="2.9" ry="7.3"/>
		</g>
	</g>
	<text transform="matrix(1 0 0 1 -711.913 786.054)" class="st1" style="font-family:'HelveticaNeue'; font-size:42px;">w</text>
	
		<text transform="matrix(1 0 0 1 -679.013 786.054)" class="st1" style="font-family:'HelveticaNeue'; font-size:42px; letter-spacing:1;">alk</text>
	
		<text transform="matrix(1 0 0 1 -605.313 786.054)" class="st1" style="font-family:'HelveticaNeue'; font-size:42px; letter-spacing:1;">t</text>
	<text transform="matrix(1 0 0 1 -589.513 786.054)" class="st1" style="font-family:'HelveticaNeue'; font-size:42px;">h</text>
	
		<text transform="matrix(1 0 0 1 -565.113 786.054)" class="st1" style="font-family:'HelveticaNeue'; font-size:42px; letter-spacing:1;">e</text>
	<text transform="matrix(1 0 0 1 -526.713 786.054)" class="st1" style="font-family:'HelveticaNeue'; font-size:42px;">d</text>
	
		<text transform="matrix(1 0 0 1 -500.713 786.054)" class="st1" style="font-family:'HelveticaNeue'; font-size:42px; letter-spacing:1;">og</text>
	<text transform="matrix(1 0 0 1 -665.231 1073.0551)" class="st1" style="font-family:'HelveticaNeue'; font-size:42px;">baltimo</text>
	<text transform="matrix(1 0 0 1 -525.931 1073.0551)" class="st1" style="font-family:'HelveticaNeue'; font-size:42px;">r</text>
	<text transform="matrix(1 0 0 1 -512.731 1073.0551)" class="st1" style="font-family:'HelveticaNeue'; font-size:42px;">e</text>
</g>
<g class="st0">
	<g class="st1">
		<circle class="st2" cx="-580.1" cy="1285.1" r="116.8"/>
		<path d="M-490.1,1362.2c0,2.5-2.1,4.6-4.6,4.6h-112.8c-2.6,0-4.6-2.1-4.6-4.6s2.1-4.6,4.6-4.6h112.8
			C-492.2,1357.6-490.1,1359.6-490.1,1362.2z"/>
		<g>
			<path d="M-628.2,1293.7c3.2-1.8,6.8-1.5,8.1,0.7l33.1,58.4c1.2,2.2-0.4,5.4-3.6,7.3c-3.2,1.8-6.8,1.5-8.1-0.7l-33.1-58.4
				C-633,1298.8-631.4,1295.5-628.2,1293.7z M-637.8,1300.2c3.4,1.4,5.5,4.3,4.6,6.5l-23.8,59.7c-0.9,2.2-4.4,2.9-7.8,1.6
				c-3.4-1.4-5.5-4.3-4.6-6.5l23.8-59.7C-644.7,1299.5-641.2,1298.8-637.8,1300.2z M-629.3,1235.3c2.7-1.3,5.5-1,6.4,0.7l22.9,46.1
				c0.9,1.7-0.6,4.2-3.3,5.5s-5.5,1-6.4-0.7l-22.9-46.1C-633.4,1239.2-631.9,1236.7-629.3,1235.3z M-639.6,1233.8
				c2.6,1.4,4,4,3.1,5.7l-24.6,45.2c-0.9,1.7-3.8,1.9-6.4,0.5c-2.6-1.4-4-4-3.1-5.7l24.6-45.2
				C-645.1,1232.6-642.2,1232.4-639.6,1233.8z M-619.9,1304c0,1.3-1.2,2.4-2.6,2.4h-20.2c-1.4,0-2.6-1.1-2.6-2.4v-69.2
				c0-1.4,1.2-2.4,2.6-2.4h20.2c1.5,0,2.6,1.1,2.6,2.4V1304z"/>
			<circle cx="-632.4" cy="1216.3" r="11"/>
		</g>
		<g>
			<path d="M-572.8,1337.4c1.3-2.8,0.4-6-2-7.1l-0.3-0.1c-2.4-1.1-5.5,0.2-6.8,3l-10.4,22.1c-1.3,2.8-0.4,6,2,7.1l0.3,0.1
				c2.4,1.1,5.5-0.2,6.8-3L-572.8,1337.4z M-557.5,1333.9c-1.5-2.9-4.7-4.2-7.1-3l-0.3,0.1c-2.4,1.3-3.1,4.6-1.5,7.6l12.1,23
				c1.5,2.9,4.7,4.2,7.1,3l0.3-0.1c2.4-1.3,3.1-4.6,1.5-7.6L-557.5,1333.9z M-524.4,1336.2c0-2.7-2.2-4.9-4.9-4.9h-0.3
				c-2.7,0-4.9,2.2-4.9,4.9v21.3c0,2.7,2.2,4.9,4.9,4.9h0.3c2.7,0,4.9-2.2,4.9-4.9V1336.2z M-515.3,1334.4c-1.2-2.9-4.2-4.3-6.7-3.3
				l-0.3,0.1c-2.5,1-3.6,4.2-2.4,7l9.3,22.6c1.2,2.9,4.2,4.3,6.7,3.3l0.3-0.1c2.5-1,3.6-4.2,2.4-7L-515.3,1334.4L-515.3,1334.4z
				 M-514.3,1332.3c0,2.8-2.2,5-4.9,5h-59.9c-2.7,0-4.9-2.3-4.9-5v-15.6c0-2.8,2.2-5,4.9-5h59.9c2.7,0,4.9,2.3,4.9,5V1332.3z
				 M-587.3,1303.3c-1.6-1.7-3.8-2.3-4.9-1.2l-0.1,0.1c-1.1,1-0.7,3.2,0.9,4.9l12.5,13.5c1.6,1.7,3.8,2.3,4.9,1.2l0.1-0.1
				c1.1-1,0.7-3.2-0.9-4.9L-587.3,1303.3z M-494.3,1311.4c0,3.8-3.1,6.9-6.9,6.9H-513c-3.8,0-6.9-3.1-6.9-6.9s3.1-6.9,6.9-6.9h11.8
				C-497.4,1304.5-494.3,1307.6-494.3,1311.4L-494.3,1311.4z M-511.5,1310c2.3,2.9,2.8,6.3,1.1,7.7l-5.2,4.2
				c-1.7,1.3-4.9,0.1-7.2-2.8s-2.8-6.3-1.1-7.7l5.2-4.1C-517.1,1305.8-513.8,1307.1-511.5,1310L-511.5,1310z M-518.5,1309.4l5.7-11
				l5.7,11H-518.5z M-509.8,1305.8c0,4-1.3,7.3-3,7.3c-1.6,0-3-3.3-3-7.3s1.3-7.3,3-7.3S-509.8,1301.8-509.8,1305.8z M-512.7,1309.4
				l5.9-11l5.8,11H-512.7z"/>
			<ellipse cx="-506.9" cy="1305.8" rx="2.9" ry="7.3"/>
		</g>
	</g>
	<text transform="matrix(1 0 0 1 -712.344 1155.95)" class="st1" style="font-family:'ArialMT'; font-size:42px;">w</text>
	
		<text transform="matrix(1 0 0 1 -674.844 1155.95)" class="st1" style="font-family:'ArialMT'; font-size:42px; letter-spacing:1;">alk</text>
	
		<text transform="matrix(1 0 0 1 -599.344 1155.95)" class="st1" style="font-family:'ArialMT'; font-size:42px; letter-spacing:1;">t</text>
	<text transform="matrix(1 0 0 1 -581.544 1155.95)" class="st1" style="font-family:'ArialMT'; font-size:42px;">h</text>
	
		<text transform="matrix(1 0 0 1 -554.244 1155.95)" class="st1" style="font-family:'ArialMT'; font-size:42px; letter-spacing:1;">e</text>
	<text transform="matrix(1 0 0 1 -520.344 1155.95)" class="st1" style="font-family:'ArialMT'; font-size:42px;">d</text>
	
		<text transform="matrix(1 0 0 1 -495.544 1155.95)" class="st1" style="font-family:'ArialMT'; font-size:42px; letter-spacing:1;">og</text>
	<text transform="matrix(1 0 0 1 -665.231 1443.382)" class="st1" style="font-family:'ArialMT'; font-size:42px;">baltimo</text>
	<text transform="matrix(1 0 0 1 -520.731 1443.382)" class="st1" style="font-family:'ArialMT'; font-size:42px;">r</text>
	<text transform="matrix(1 0 0 1 -503.431 1443.382)" class="st1" style="font-family:'ArialMT'; font-size:42px;">e</text>
</g>
<g class="st0">
	<g class="st1">
		<circle class="st2" cx="-647" cy="1587" r="95"/>
		<path d="M-573.8,1649.7c0,2.1-1.7,3.7-3.8,3.7h-91.8c-2.1,0-3.8-1.7-3.8-3.7c0-2.1,1.7-3.7,3.8-3.7h91.8
			C-575.4,1646-573.8,1647.7-573.8,1649.7z"/>
		<g>
			<path d="M-686.1,1594.1c2.6-1.5,5.5-1.2,6.6,0.5l26.9,47.5c1,1.8-0.3,4.4-2.9,5.9s-5.5,1.2-6.6-0.6L-689,1600
				C-690,1598.2-688.7,1595.5-686.1,1594.1z M-693.8,1599.3c2.8,1.1,4.5,3.5,3.7,5.3l-19.4,48.5c-0.7,1.8-3.6,2.4-6.4,1.3
				c-2.8-1.1-4.5-3.5-3.7-5.3l19.4-48.5C-699.5,1598.8-696.6,1598.2-693.8,1599.3z M-686.9,1546.6c2.2-1.1,4.5-0.8,5.2,0.6
				l18.6,37.5c0.7,1.4-0.5,3.4-2.7,4.5s-4.5,0.8-5.2-0.6l-18.6-37.5C-690.3,1549.7-689.1,1547.7-686.9,1546.6z M-695.3,1545.3
				c2.1,1.2,3.3,3.2,2.5,4.6l-20,36.7c-0.8,1.4-3.1,1.5-5.2,0.4c-2.1-1.2-3.3-3.2-2.5-4.6l20-36.7
				C-699.8,1544.3-697.5,1544.2-695.3,1545.3z M-679.4,1602.5c0,1.1-1,2-2.1,2h-16.4c-1.2,0-2.1-0.9-2.1-2v-56.3c0-1.1,1-2,2.1-2
				h16.4c1.2,0,2.1,0.9,2.1,2V1602.5z M-680.6,1531.1c0,4.9-4,8.9-8.9,8.9s-8.9-4-8.9-8.9s4-8.9,8.9-8.9
				C-684.5,1522.2-680.6,1526.2-680.6,1531.1z"/>
		</g>
		<g>
			<path d="M-641,1629.6c1.1-2.3,0.3-4.9-1.7-5.8l-0.2-0.1c-2-0.9-4.5,0.1-5.5,2.4l-8.5,18c-1.1,2.3-0.3,4.9,1.7,5.8l0.2,0.1
				c2,0.9,4.5-0.1,5.5-2.4L-641,1629.6z M-628.5,1626.8c-1.2-2.4-3.8-3.5-5.8-2.4l-0.2,0.1c-1.9,1-2.5,3.8-1.3,6.1l9.9,18.7
				c1.2,2.4,3.8,3.5,5.8,2.4l0.2-0.1c1.9-1,2.5-3.8,1.3-6.1L-628.5,1626.8z M-601.6,1628.6c0-2.2-1.8-4-4-4h-0.2c-2.2,0-4,1.8-4,4
				v17.4c0,2.2,1.8,4,4,4h0.2c2.2,0,4-1.8,4-4V1628.6z M-594.2,1627.1c-1-2.3-3.4-3.5-5.4-2.7l-0.2,0.1c-2,0.8-2.9,3.4-1.9,5.7
				l7.6,18.3c1,2.3,3.4,3.5,5.4,2.7l0.2-0.1c2-0.8,2.9-3.4,1.9-5.7L-594.2,1627.1z M-593.4,1625.4c0,2.3-1.8,4.1-4,4.1h-48.7
				c-2.2,0-4-1.8-4-4.1v-12.7c0-2.3,1.8-4.1,4-4.1h48.7c2.2,0,4,1.8,4,4.1V1625.4z M-652.8,1601.9c-1.3-1.4-3.1-1.8-4-1l-0.1,0.1
				c-0.9,0.8-0.6,2.6,0.7,4l10.1,11c1.3,1.4,3.1,1.8,4,1l0.1-0.1c0.9-0.8,0.6-2.6-0.7-4L-652.8,1601.9z M-577.1,1608.4
				c0,3.1-2.5,5.6-5.6,5.6h-9.6c-3.1,0-5.6-2.5-5.6-5.6s2.5-5.6,5.6-5.6h9.6C-579.7,1602.8-577.1,1605.3-577.1,1608.4z
				 M-591.2,1607.3c1.9,2.4,2.3,5.1,0.9,6.2l-4.2,3.4c-1.4,1.1-4,0.1-5.9-2.3s-2.3-5.1-0.9-6.2l4.2-3.4
				C-595.7,1603.9-593.1,1604.9-591.2,1607.3z M-596.8,1606.8l4.6-8.9l4.7,8.9H-596.8z M-589.7,1603.9c0,3.3-1.1,5.9-2.4,5.9
				c-1.3,0-2.4-2.7-2.4-5.9s1.1-5.9,2.4-5.9C-590.8,1597.9-589.7,1600.6-589.7,1603.9z M-592.1,1606.8l4.8-8.9l4.7,8.9H-592.1z"/>
			<ellipse cx="-587.4" cy="1603.9" rx="2.4" ry="5.9"/>
		</g>
	</g>
	<text transform="matrix(1 0 0 1 -537.921 1583.5179)" class="st1" style="font-family:'HelveticaNeue'; font-size:79.405px;">w</text>
	
		<text transform="matrix(1 0 0 1 -475.721 1583.5179)" class="st1" style="font-family:'HelveticaNeue'; font-size:79.405px; letter-spacing:2;">alk</text>
	
		<text transform="matrix(1 0 0 1 -336.321 1583.5179)" class="st1" style="font-family:'HelveticaNeue'; font-size:79.405px; letter-spacing:3;">t</text>
	<text transform="matrix(1 0 0 1 -306.521 1583.5179)" class="st1" style="font-family:'HelveticaNeue'; font-size:79.405px;">h</text>
	
		<text transform="matrix(1 0 0 1 -260.421 1583.5179)" class="st1" style="font-family:'HelveticaNeue'; font-size:79.405px; letter-spacing:2;">e</text>
	<text transform="matrix(1 0 0 1 -187.721 1583.5179)" class="st1" style="font-family:'HelveticaNeue'; font-size:79.405px;">d</text>
	
		<text transform="matrix(1 0 0 1 -138.721 1583.5179)" class="st1" style="font-family:'HelveticaNeue'; font-size:79.405px; letter-spacing:2;">og</text>
	<text transform="matrix(1 0 0 1 -537.921 1634.377)" class="st1" style="font-family:'HelveticaNeue'; font-size:50.29px;">baltimo</text>
	<text transform="matrix(1 0 0 1 -371.121 1634.377)" class="st1" style="font-family:'HelveticaNeue'; font-size:50.29px;">r</text>
	<text transform="matrix(1 0 0 1 -355.321 1634.377)" class="st1" style="font-family:'HelveticaNeue'; font-size:50.29px;">e</text>
</g>
<g class="st0">
	<g class="st1">
		<circle class="st2" cx="-647" cy="1820.9" r="95"/>
		<path d="M-573.8,1883.7c0,2.1-1.7,3.7-3.8,3.7h-91.8c-2.1,0-3.8-1.7-3.8-3.7c0-2.1,1.7-3.7,3.8-3.7h91.8
			C-575.4,1879.9-573.8,1881.6-573.8,1883.7z"/>
		<g>
			<path d="M-686.1,1828c2.6-1.5,5.5-1.2,6.6,0.5l26.9,47.5c1,1.8-0.3,4.4-2.9,5.9s-5.5,1.2-6.6-0.6l-26.9-47.5
				C-690,1832.1-688.7,1829.5-686.1,1828z M-693.8,1833.2c2.8,1.1,4.5,3.5,3.7,5.3l-19.4,48.5c-0.7,1.8-3.6,2.4-6.4,1.3
				c-2.8-1.1-4.5-3.5-3.7-5.3l19.4-48.5C-699.5,1832.7-696.6,1832.1-693.8,1833.2z M-686.9,1780.5c2.2-1.1,4.5-0.8,5.2,0.6
				l18.6,37.5c0.7,1.4-0.5,3.4-2.7,4.5s-4.5,0.8-5.2-0.6l-18.6-37.5C-690.3,1783.6-689.1,1781.6-686.9,1780.5z M-695.3,1779.2
				c2.1,1.2,3.3,3.2,2.5,4.6l-20,36.7c-0.8,1.4-3.1,1.5-5.2,0.4c-2.1-1.2-3.3-3.2-2.5-4.6l20-36.7
				C-699.8,1778.2-697.5,1778.1-695.3,1779.2z M-679.4,1836.4c0,1.1-1,2-2.1,2h-16.4c-1.2,0-2.1-0.9-2.1-2v-56.3c0-1.1,1-2,2.1-2
				h16.4c1.2,0,2.1,0.9,2.1,2V1836.4z M-680.6,1765c0,4.9-4,8.9-8.9,8.9s-8.9-4-8.9-8.9s4-8.9,8.9-8.9
				C-684.5,1756.1-680.6,1760.1-680.6,1765z"/>
		</g>
		<g>
			<path d="M-641,1863.5c1.1-2.3,0.3-4.9-1.7-5.8l-0.2-0.1c-2-0.9-4.5,0.1-5.5,2.4l-8.5,18c-1.1,2.3-0.3,4.9,1.7,5.8l0.2,0.1
				c2,0.9,4.5-0.1,5.5-2.4L-641,1863.5z M-628.5,1860.7c-1.2-2.4-3.8-3.5-5.8-2.4l-0.2,0.1c-1.9,1-2.5,3.8-1.3,6.1l9.9,18.7
				c1.2,2.4,3.8,3.5,5.8,2.4l0.2-0.1c1.9-1,2.5-3.8,1.3-6.1L-628.5,1860.7z M-601.6,1862.5c0-2.2-1.8-4-4-4h-0.2c-2.2,0-4,1.8-4,4
				v17.4c0,2.2,1.8,4,4,4h0.2c2.2,0,4-1.8,4-4V1862.5z M-594.2,1861c-1-2.3-3.4-3.5-5.4-2.7l-0.2,0.1c-2,0.8-2.9,3.4-1.9,5.7
				l7.6,18.3c1,2.3,3.4,3.5,5.4,2.7l0.2-0.1c2-0.8,2.9-3.4,1.9-5.7L-594.2,1861z M-593.4,1859.4c0,2.3-1.8,4.1-4,4.1h-48.7
				c-2.2,0-4-1.8-4-4.1v-12.7c0-2.3,1.8-4.1,4-4.1h48.7c2.2,0,4,1.8,4,4.1V1859.4z M-652.8,1835.8c-1.3-1.4-3.1-1.8-4-1l-0.1,0.1
				c-0.9,0.8-0.6,2.6,0.7,4l10.1,11c1.3,1.4,3.1,1.8,4,1l0.1-0.1c0.9-0.8,0.6-2.6-0.7-4L-652.8,1835.8z M-577.1,1842.4
				c0,3.1-2.5,5.6-5.6,5.6h-9.6c-3.1,0-5.6-2.5-5.6-5.6s2.5-5.6,5.6-5.6h9.6C-579.7,1836.8-577.1,1839.3-577.1,1842.4z
				 M-591.2,1841.2c1.9,2.4,2.3,5.1,0.9,6.2l-4.2,3.4c-1.4,1.1-4,0.1-5.9-2.3s-2.3-5.1-0.9-6.2l4.2-3.4
				C-595.7,1837.9-593.1,1838.9-591.2,1841.2z M-596.8,1840.7l4.6-8.9l4.7,8.9H-596.8z M-589.7,1837.8c0,3.3-1.1,5.9-2.4,5.9
				c-1.3,0-2.4-2.7-2.4-5.9s1.1-5.9,2.4-5.9C-590.8,1831.9-589.7,1834.5-589.7,1837.8z M-592.1,1840.7l4.8-8.9l4.7,8.9H-592.1z"/>
			<ellipse cx="-587.4" cy="1837.8" rx="2.4" ry="5.9"/>
		</g>
	</g>
	<text transform="matrix(1 0 0 1 -539.736 1825.012)" class="st1" style="font-family:'ArialMT'; font-size:79.405px;">w</text>
	
		<text transform="matrix(1 0 0 1 -468.736 1825.012)" class="st1" style="font-family:'ArialMT'; font-size:79.405px; letter-spacing:2;">alk</text>
	
		<text transform="matrix(1 0 0 1 -326.036 1825.012)" class="st1" style="font-family:'ArialMT'; font-size:79.405px; letter-spacing:3;">t</text>
	<text transform="matrix(1 0 0 1 -292.436 1825.012)" class="st1" style="font-family:'ArialMT'; font-size:79.405px;">h</text>
	
		<text transform="matrix(1 0 0 1 -240.836 1825.012)" class="st1" style="font-family:'ArialMT'; font-size:79.405px; letter-spacing:2;">e</text>
	<text transform="matrix(1 0 0 1 -176.736 1825.012)" class="st1" style="font-family:'ArialMT'; font-size:79.405px;">d</text>
	
		<text transform="matrix(1 0 0 1 -129.936 1825.012)" class="st1" style="font-family:'ArialMT'; font-size:79.405px; letter-spacing:2;">og</text>
	<text transform="matrix(1 0 0 1 -538.921 1875.871)" class="st1" style="font-family:'ArialMT'; font-size:50.29px;">baltimo</text>
	<text transform="matrix(1 0 0 1 -365.921 1875.871)" class="st1" style="font-family:'ArialMT'; font-size:50.29px;">r</text>
	<text transform="matrix(1 0 0 1 -345.121 1875.871)" class="st1" style="font-family:'ArialMT'; font-size:50.29px;">e</text>
</g>
</svg>
