<?xml version="1.0" encoding="utf-8"?>
<!-- Generator: Adobe Illustrator 15.0.0, SVG Export Plug-In . SVG Version: 6.00 Build 0)  -->
<!DOCTYPE svg PUBLIC "-//W3C//DTD SVG 1.1//EN" "http://www.w3.org/Graphics/SVG/1.1/DTD/svg11.dtd">
<svg version="1.1" xmlns="http://www.w3.org/2000/svg" xmlns:xlink="http://www.w3.org/1999/xlink" x="0px" y="0px" width="321.9px"
	 height="349px" viewBox="0 0 321.9 349" enable-background="new 0 0 321.9 349" xml:space="preserve">
<g id="Layer_2">
	<g id="mark_2_">
		<circle id="circle_2_" fill="none" stroke="#000000" stroke-width="5" stroke-miterlimit="10" cx="-580.1" cy="170.1" r="90"/>
		<path id="ground_2_" d="M-510.8,229.5c0,2-1.6,3.5-3.6,3.5h-86.9c-2,0-3.6-1.6-3.6-3.5l0,0c0-2,1.6-3.5,3.6-3.5h86.9
			C-512.4,225.9-510.8,227.5-510.8,229.5L-510.8,229.5z"/>
		<g id="walker_2_">
			<path d="M-617.2,176.7c2.5-1.4,5.3-1.2,6.2,0.5l25.5,45c1,1.7-0.3,4.2-2.7,5.6l0,0c-2.5,1.4-5.3,1.2-6.2-0.5l-25.5-45
				C-620.9,180.6-619.7,178.1-617.2,176.7L-617.2,176.7z"/>
			<path d="M-624.5,181.7c2.6,1.1,4.2,3.3,3.5,5l-18.4,46c-0.7,1.7-3.4,2.3-6,1.2l0,0c-2.6-1.1-4.2-3.3-3.5-5l18.4-46
				C-629.9,181.2-627.2,180.7-624.5,181.7L-624.5,181.7z"/>
			<path d="M-618,131.8c2.1-1,4.3-0.8,4.9,0.6l17.6,35.5c0.7,1.3-0.5,3.2-2.5,4.3l0,0c-2.1,1-4.3,0.8-4.9-0.6l-17.6-35.5
				C-621.2,134.7-620.1,132.8-618,131.8L-618,131.8z"/>
			<path d="M-625.9,130.5c2,1.1,3.1,3.1,2.4,4.4l-19,34.8c-0.7,1.3-2.9,1.5-5,0.4l0,0c-2-1.1-3.1-3.1-2.4-4.4l19-34.8
				C-630.2,129.6-628,129.4-625.9,130.5L-625.9,130.5z"/>
			<path d="M-610.8,184.7c0,1-0.9,1.9-2,1.9h-15.5c-1.1,0-2-0.8-2-1.9v-53.3c0-1,0.9-1.9,2-1.9h15.5c1.1,0,2,0.8,2,1.9V184.7z"/>
			<circle cx="-620.4" cy="117.1" r="8.4"/>
		</g>
		<g id="dog_2_">
			<path d="M-574.5,210.4c1-2.2,0.3-4.6-1.6-5.5l-0.2-0.1c-1.9-0.9-4.2,0.1-5.2,2.3l-8,17c-1,2.2-0.3,4.6,1.6,5.5l0.2,0.1
				c1.9,0.9,4.2-0.1,5.2-2.3L-574.5,210.4z"/>
			<path d="M-562.7,207.7c-1.2-2.2-3.6-3.3-5.5-2.3l-0.2,0.1c-1.8,1-2.4,3.6-1.2,5.8l9.4,17.7c1.2,2.2,3.6,3.3,5.5,2.3l0.2-0.1
				c1.8-1,2.4-3.6,1.2-5.8L-562.7,207.7z"/>
			<path d="M-537.2,209.5c0-2.1-1.7-3.8-3.8-3.8h-0.2c-2.1,0-3.8,1.7-3.8,3.8v16.4c0,2.1,1.7,3.8,3.8,3.8h0.2c2.1,0,3.8-1.7,3.8-3.8
				V209.5z"/>
			<path d="M-530.2,208c-0.9-2.2-3.2-3.3-5.1-2.5l-0.2,0.1c-1.9,0.8-2.7,3.2-1.8,5.4l7.2,17.4c0.9,2.2,3.2,3.3,5.1,2.5l0.2-0.1
				c1.9-0.8,2.7-3.2,1.8-5.4L-530.2,208z"/>
			<path d="M-529.4,206.4c0,2.1-1.7,3.9-3.8,3.9h-46.2c-2.1,0-3.8-1.7-3.8-3.9v-12c0-2.1,1.7-3.9,3.8-3.9h46.2
				c2.1,0,3.8,1.7,3.8,3.9V206.4z"/>
			<path d="M-585.7,184.1c-1.2-1.3-2.9-1.7-3.7-1l-0.1,0.1c-0.9,0.8-0.6,2.5,0.7,3.8l9.6,10.4c1.2,1.3,2.9,1.7,3.7,1l0.1-0.1
				c0.9-0.8,0.6-2.5-0.7-3.8L-585.7,184.1z"/>
			<path d="M-514,190.3c0,2.9-2.4,5.3-5.3,5.3h-9.1c-2.9,0-5.3-2.4-5.3-5.3l0,0c0-2.9,2.4-5.3,5.3-5.3h9.1
				C-516.4,185-514,187.4-514,190.3L-514,190.3z"/>
			<path d="M-527.3,189.3c1.8,2.2,2.2,4.9,0.9,5.9l-4,3.2c-1.3,1-3.8,0.1-5.6-2.2l0,0c-1.8-2.2-2.2-4.9-0.9-5.9l4-3.2
				C-531.5,186.1-529.1,187-527.3,189.3L-527.3,189.3z"/>
			<polygon points="-532.6,188.8 -528.2,180.4 -523.8,188.8 			"/>
			<ellipse cx="-528.2" cy="186" rx="2.3" ry="5.6"/>
			<polygon points="-528.2,188.8 -523.6,180.4 -519.1,188.8 			"/>
			<ellipse cx="-523.7" cy="186" rx="2.2" ry="5.6"/>
		</g>
	</g>
	<g>
		<path fill="none" d="M-702.6,175.1c0,67.7,54.8,122.5,122.5,122.5s122.5-54.8,122.5-122.5c0-0.6,0-1.1,0-1.7"/>
		<text transform="matrix(0.5965 0.8026 -0.8026 0.5965 -710.4116 252.0586)"><tspan x="0" y="0" font-family="'Aleo-Regular'" font-size="56">b</tspan><tspan x="41.4" y="-1.5" font-family="'Aleo-Regular'" font-size="56" rotate="-15.1">a</tspan><tspan x="76.3" y="-12.4" font-family="'Aleo-Regular'" font-size="56" rotate="-26.7">l</tspan><tspan x="97.6" y="-23.7" font-family="'Aleo-Regular'" font-size="56" rotate="-36.7">t</tspan><tspan x="121.2" y="-42.6" font-family="'Aleo-Regular'" font-size="56" rotate="-47.4">i</tspan><tspan x="139.3" y="-60.8" font-family="'Aleo-Regular'" font-size="56" rotate="-63.3">m</tspan><tspan x="163.1" y="-115.6" font-family="'Aleo-Regular'" font-size="56" rotate="-82.3">o</tspan><tspan x="166.9" y="-153.1" font-family="'Aleo-Regular'" font-size="56" rotate="-95.6">r</tspan><tspan x="163.2" y="-184.5" font-family="'Aleo-Regular'" font-size="56" rotate="-108.2">e</tspan></text>
		<path fill="none" d="M-702.6,175.1c0-67.7,54.8-122.5,122.5-122.5c67.1,0,121.6,53.9,122.5,120.8"/>
		<text transform="matrix(0.412 -0.9112 0.9112 0.412 -701.8223 146.8125)"><tspan x="0" y="0" font-family="'Aleo-Regular'" font-size="56">w</tspan><tspan x="47.2" y="1.3" font-family="'Aleo-Regular'" font-size="56" rotate="17.4">a</tspan><tspan x="75.4" y="10.9" font-family="'Aleo-Regular'" font-size="56" rotate="28.3">l</tspan><tspan x="90.9" y="18.4" font-family="'Aleo-Regular'" font-size="56" rotate="40.1">k</tspan><tspan x="115.8" y="40.6" font-family="'Aleo-Regular'" font-size="56" rotate="51"> </tspan><tspan x="124.4" y="51" font-family="'Aleo-Regular'" font-size="56" rotate="59.2">t</tspan><tspan x="136.1" y="69.3" font-family="'Aleo-Regular'" font-size="56" rotate="72.6">h</tspan><tspan x="146" y="102" font-family="'Aleo-Regular'" font-size="56" rotate="86.8">e</tspan><tspan x="146.8" y="130.7" font-family="'Aleo-Regular'" font-size="56" rotate="96.7"> </tspan><tspan x="146.1" y="143.9" font-family="'Aleo-Regular'" font-size="56" rotate="107.3">d</tspan><tspan x="136.9" y="173.3" font-family="'Aleo-Regular'" font-size="56" rotate="121.1">o</tspan><tspan x="121.1" y="199.1" font-family="'Aleo-Regular'" font-size="56" rotate="135">g</tspan></text>
	</g>
</g>
<g id="Layer_3">
	<g id="mark_4_">
		<circle id="circle_4_" fill="none" stroke="#000000" stroke-width="5" stroke-miterlimit="10" cx="-580.1" cy="540.2" r="90"/>
		<path id="ground_4_" d="M-510.8,599.7c0,2-1.6,3.5-3.6,3.5h-86.9c-2,0-3.6-1.6-3.6-3.5l0,0c0-2,1.6-3.5,3.6-3.5h86.9
			C-512.4,596.1-510.8,597.7-510.8,599.7L-510.8,599.7z"/>
		<g id="walker_4_">
			<path d="M-617.2,546.9c2.5-1.4,5.3-1.2,6.2,0.5l25.5,45c1,1.7-0.3,4.2-2.7,5.6l0,0c-2.5,1.4-5.2,1.2-6.2-0.5l-25.5-45
				C-620.9,550.8-619.7,548.3-617.2,546.9L-617.2,546.9z"/>
			<path d="M-624.5,551.9c2.6,1.1,4.2,3.3,3.5,5l-18.4,46c-0.7,1.7-3.4,2.3-6,1.2l0,0c-2.6-1.1-4.2-3.3-3.5-5l18.4-46
				C-629.9,551.4-627.2,550.8-624.5,551.9L-624.5,551.9z"/>
			<path d="M-618,501.9c2.1-1,4.3-0.8,4.9,0.6l17.6,35.5c0.7,1.3-0.5,3.2-2.5,4.3l0,0c-2.1,1-4.3,0.8-4.9-0.6l-17.6-35.5
				C-621.2,504.9-620.1,503-618,501.9L-618,501.9z"/>
			<path d="M-625.9,500.7c2,1.1,3.1,3.1,2.4,4.4l-19,34.8c-0.7,1.3-2.9,1.5-5,0.4l0,0c-2-1.1-3.1-3.1-2.4-4.4l19-34.8
				C-630.2,499.8-628,499.6-625.9,500.7L-625.9,500.7z"/>
			<path d="M-610.8,554.9c0,1-0.9,1.9-2,1.9h-15.5c-1.1,0-2-0.8-2-1.9v-53.3c0-1,0.9-1.9,2-1.9h15.5c1.1,0,2,0.8,2,1.9V554.9z"/>
			<circle cx="-620.4" cy="487.3" r="8.4"/>
		</g>
		<g id="dog_4_">
			<path d="M-574.5,580.6c1-2.2,0.3-4.6-1.6-5.5l-0.2-0.1c-1.9-0.9-4.2,0.1-5.2,2.3l-8,17c-1,2.2-0.3,4.6,1.6,5.5l0.2,0.1
				c1.9,0.9,4.2-0.1,5.2-2.3L-574.5,580.6z"/>
			<path d="M-562.7,577.9c-1.2-2.2-3.6-3.3-5.5-2.3l-0.2,0.1c-1.8,1-2.4,3.6-1.2,5.8l9.4,17.7c1.2,2.2,3.6,3.3,5.5,2.3l0.2-0.1
				c1.8-1,2.4-3.6,1.2-5.8L-562.7,577.9z"/>
			<path d="M-537.2,579.6c0-2.1-1.7-3.8-3.8-3.8h-0.2c-2.1,0-3.8,1.7-3.8,3.8v16.4c0,2.1,1.7,3.8,3.8,3.8h0.2c2.1,0,3.8-1.7,3.8-3.8
				V579.6z"/>
			<path d="M-530.2,578.2c-0.9-2.2-3.2-3.3-5.1-2.5l-0.2,0.1c-1.9,0.8-2.7,3.2-1.8,5.4l7.2,17.4c0.9,2.2,3.2,3.3,5.1,2.5l0.2-0.1
				c1.9-0.8,2.7-3.2,1.8-5.4L-530.2,578.2z"/>
			<path d="M-529.4,576.6c0,2.1-1.7,3.9-3.8,3.9h-46.2c-2.1,0-3.8-1.7-3.8-3.9v-12c0-2.1,1.7-3.9,3.8-3.9h46.2
				c2.1,0,3.8,1.7,3.8,3.9V576.6z"/>
			<path d="M-585.7,554.3c-1.2-1.3-2.9-1.7-3.7-1l-0.1,0.1c-0.9,0.8-0.6,2.5,0.7,3.8l9.6,10.4c1.2,1.3,2.9,1.7,3.7,1l0.1-0.1
				c0.9-0.8,0.6-2.5-0.7-3.8L-585.7,554.3z"/>
			<path d="M-514,560.5c0,2.9-2.4,5.3-5.3,5.3h-9.1c-2.9,0-5.3-2.4-5.3-5.3l0,0c0-2.9,2.4-5.3,5.3-5.3h9.1
				C-516.4,555.2-514,557.6-514,560.5L-514,560.5z"/>
			<path d="M-527.3,559.5c1.8,2.2,2.2,4.9,0.9,5.9l-4,3.2c-1.3,1-3.8,0.1-5.6-2.2l0,0c-1.8-2.2-2.2-4.9-0.9-5.9l4-3.2
				C-531.5,556.3-529.1,557.2-527.3,559.5L-527.3,559.5z"/>
			<polygon points="-532.6,559 -528.2,550.5 -523.8,559 			"/>
			<path d="M-525.9,556.2c0,3.1-1,5.6-2.3,5.6c-1.3,0-2.3-2.5-2.3-5.6c0-3.1,1-5.6,2.3-5.6C-526.9,550.6-525.9,553.1-525.9,556.2z"
				/>
			<polygon points="-528.2,559 -523.6,550.5 -519.1,559 			"/>
			<ellipse cx="-523.7" cy="556.2" rx="2.2" ry="5.6"/>
		</g>
	</g>
	<g>
		<path fill="none" d="M-702.6,543.2c0,67.7,54.8,122.5,122.5,122.5s122.5-54.8,122.5-122.5c0-0.6,0-1.1,0-1.7"/>
		<text transform="matrix(0.6167 0.7872 -0.7872 0.6167 -712.0342 625.3867)"><tspan x="0" y="0" font-family="'HelveticaNeue'" font-size="56">b</tspan><tspan x="41.9" y="-1.3" font-family="'HelveticaNeue'" font-size="56" rotate="-14.9">a</tspan><tspan x="80.2" y="-13.5" font-family="'HelveticaNeue'" font-size="56" rotate="-26.5">l</tspan><tspan x="100.8" y="-24.6" font-family="'HelveticaNeue'" font-size="56" rotate="-36.2">t</tspan><tspan x="123.2" y="-42.4" font-family="'HelveticaNeue'" font-size="56" rotate="-45.9">i</tspan><tspan x="138.8" y="-60.1" font-family="'HelveticaNeue'" font-size="56" rotate="-61.1">m</tspan><tspan x="165.5" y="-109.7" font-family="'HelveticaNeue'" font-size="56" rotate="-79.2">o</tspan><tspan x="171.4" y="-150.3" font-family="'HelveticaNeue'" font-size="56" rotate="-91.9">r</tspan><tspan x="169.7" y="-180.9" font-family="'HelveticaNeue'" font-size="56" rotate="-105.3">e</tspan></text>
		<path fill="none" d="M-702.6,543.2c0-67.7,54.8-122.5,122.5-122.5c67.1,0,121.6,53.9,122.5,120.8"/>
		<text transform="matrix(0.3992 -0.9169 0.9169 0.3992 -700.9604 513.835)"><tspan x="0" y="0" font-family="'HelveticaNeue'" font-size="56">w</tspan><tspan x="41.2" y="0.7" font-family="'HelveticaNeue'" font-size="56" rotate="16.3">a</tspan><tspan x="70.8" y="10.3" font-family="'HelveticaNeue'" font-size="56" rotate="26.7">l</tspan><tspan x="83.3" y="15.9" font-family="'HelveticaNeue'" font-size="56" rotate="36.9">k</tspan><tspan x="106.9" y="34.5" font-family="'HelveticaNeue'" font-size="56" rotate="47.8"> </tspan><tspan x="118.3" y="47.1" font-family="'HelveticaNeue'" font-size="56" rotate="56.3">t</tspan><tspan x="129.3" y="62.7" font-family="'HelveticaNeue'" font-size="56" rotate="68.2">h</tspan><tspan x="140.3" y="89.7" font-family="'HelveticaNeue'" font-size="56" rotate="81.5">e</tspan><tspan x="144" y="120.5" font-family="'HelveticaNeue'" font-size="56" rotate="92.7"> </tspan><tspan x="144.1" y="137" font-family="'HelveticaNeue'" font-size="56" rotate="104.5">d</tspan><tspan x="136" y="168.4" font-family="'HelveticaNeue'" font-size="56" rotate="119.2">o</tspan><tspan x="120.1" y="196.8" font-family="'HelveticaNeue'" font-size="56" rotate="134.4">g</tspan></text>
	</g>
</g>
<g id="FINAL">
	<g id="mark_7_">
		<circle id="circle_7_" fill="none" stroke="#000000" stroke-width="5" stroke-miterlimit="10" cx="160.9" cy="179.4" r="99.2"/>
		<path id="ground_7_" d="M237.4,244.9c0,2.2-1.8,3.9-3.9,3.9h-95.8c-2.2,0-3.9-1.7-3.9-3.9l0,0c0-2.1,1.8-3.9,3.9-3.9h95.8
			C235.6,241,237.4,242.7,237.4,244.9L237.4,244.9z"/>
		<g id="walker_7_">
			<path d="M120.1,186.7c2.7-1.5,5.8-1.3,6.8,0.6l28.1,49.6c1.1,1.9-0.3,4.6-3,6.2l0,0c-2.7,1.5-5.8,1.3-6.8-0.6L117,192.9
				C116,191,117.3,188.3,120.1,186.7L120.1,186.7z"/>
			<path d="M112,192.2c2.9,1.2,4.6,3.6,3.9,5.5l-20.2,50.7c-0.8,1.9-3.7,2.5-6.6,1.3l0,0c-2.9-1.2-4.6-3.6-3.9-5.5l20.2-50.7
				C106.1,191.6,109.1,191,112,192.2L112,192.2z"/>
			<path d="M119.2,137.2c2.3-1.1,4.7-0.9,5.4,0.6l19.4,39.1c0.7,1.5-0.5,3.6-2.8,4.7l0,0c-2.3,1.1-4.7,0.9-5.4-0.6l-19.4-39.1
				C115.7,140.4,116.9,138.3,119.2,137.2L119.2,137.2z"/>
			<path d="M110.4,135.8c2.2,1.2,3.4,3.4,2.6,4.8L92.1,179c-0.8,1.4-3.2,1.6-5.5,0.4l0,0c-2.2-1.2-3.4-3.4-2.6-4.8l20.9-38.3
				C105.8,134.8,108.2,134.6,110.4,135.8L110.4,135.8z"/>
			<path d="M127.1,195.5c0,1.1-1,2.1-2.2,2.1h-17.1c-1.2,0-2.2-0.9-2.2-2.1v-58.7c0-1.1,1-2.1,2.2-2.1h17.1c1.2,0,2.2,0.9,2.2,2.1
				V195.5z"/>
			<circle cx="116.6" cy="121" r="9.3"/>
		</g>
		<g id="dog_7_">
			<path d="M167.1,223.8c1.1-2.4,0.3-5.1-1.7-6.1l-0.2-0.1c-2.1-1-4.7,0.2-5.8,2.5l-8.8,18.7c-1.1,2.4-0.3,5.1,1.7,6.1l0.2,0.1
				c2.1,1,4.7-0.2,5.8-2.5L167.1,223.8z"/>
			<path d="M180.2,220.9c-1.3-2.5-4-3.6-6-2.5l-0.2,0.1c-2,1.1-2.6,3.9-1.3,6.4l10.3,19.5c1.3,2.5,4,3.6,6,2.5l0.2-0.1
				c2-1.1,2.6-3.9,1.3-6.4L180.2,220.9z"/>
			<path d="M208.2,222.8c0-2.3-1.9-4.2-4.2-4.2h-0.3c-2.3,0-4.2,1.9-4.2,4.2v18.1c0,2.3,1.9,4.2,4.2,4.2h0.3c2.3,0,4.2-1.9,4.2-4.2
				V222.8z"/>
			<path d="M216,221.2c-1-2.4-3.5-3.7-5.7-2.8l-0.2,0.1c-2.1,0.9-3,3.6-2,6l7.9,19.2c1,2.4,3.5,3.7,5.7,2.8l0.2-0.1
				c2.1-0.9,3-3.6,2-6L216,221.2z"/>
			<path d="M216.8,219.5c0,2.4-1.9,4.3-4.2,4.3h-50.9c-2.3,0-4.2-1.9-4.2-4.3v-13.3c0-2.4,1.9-4.3,4.2-4.3h50.9
				c2.3,0,4.2,1.9,4.2,4.3V219.5z"/>
			<path d="M154.8,194.9c-1.3-1.5-3.2-1.9-4.1-1l-0.1,0.1c-0.9,0.9-0.6,2.8,0.7,4.2l10.6,11.4c1.3,1.4,3.2,1.9,4.1,1l0.1-0.1
				c0.9-0.9,0.6-2.8-0.7-4.2L154.8,194.9z"/>
			<path d="M233.8,201.7c0,3.2-2.6,5.8-5.9,5.8h-10c-3.2,0-5.9-2.6-5.9-5.8l0,0c0-3.2,2.6-5.8,5.9-5.8h10
				C231.2,195.9,233.8,198.5,233.8,201.7L233.8,201.7z"/>
			<path d="M219.2,200.5c2,2.5,2.4,5.4,0.9,6.5l-4.4,3.5c-1.4,1.1-4.2,0.1-6.1-2.4l0,0c-2-2.5-2.4-5.4-0.9-6.5l4.4-3.5
				C214.5,197,217.2,198.1,219.2,200.5L219.2,200.5z"/>
			<polygon points="213.2,200 218.1,190.7 223,200 			"/>
			<path d="M220.7,197c0,3.4-1.1,6.2-2.5,6.2c-1.4,0-2.5-2.8-2.5-6.2c0-3.4,1.1-6.2,2.5-6.2C219.5,190.8,220.7,193.5,220.7,197z"/>
			<polygon points="218.2,200 223.2,190.7 228.2,200 			"/>
			<ellipse cx="223.1" cy="197" rx="2.5" ry="6.2"/>
		</g>
	</g>
	<g>
		<g>
			<path d="M57.1,250.1l-13,10.2c0.4,0.2,1.1-0.1,1.6-0.1c0.8,0,1.5,0.1,2.2,0.3c1.4,0.4,2.7,1.2,3.9,2.1c2.3,1.9,4.2,4.4,5.2,7.3
				c2.1,6.4-1.2,12.8-6.1,16.8c-4.9,4.1-11.6,6.5-17.7,3.5c-5.2-2.6-9.6-9.6-7.4-15.4l-0.1-0.1l-3.4,2.6l-3.2-4.1L53.9,246
				L57.1,250.1L57.1,250.1z M50.2,279.4c1.8-2.4,2.7-5.5,1.9-8.5c-0.7-2.5-2.7-5-5.1-6.2c-5.6-2.6-12,1.4-15.4,5.8
				c-1.8,2.3-2.7,5.3-2.1,8.2c0.6,2.7,2.6,5.4,5.1,6.6C40.1,288.1,47,283.8,50.2,279.4C51.1,278.2,49.4,280.6,50.2,279.4z"/>
			<path d="M72,324.6c-1.8-0.2-3.9-1.5-4.9-3.1c-1.1-1.8-0.4-3.6,0.8-5.1c-6.1,1.4-13.4-2-16.1-7.7c-2.9-6,2.9-13.2,9.3-12.3
				c3.2,0.4,6.3,2.2,9.1,3.8c2.1,1.2,5.9,4,8.2,1.8c2.6-2.5,1.7-5.7-0.6-7.9c-1.9-1.8-4.9-3.9-7.7-3.5c-1.3,0.2-2.5,1.1-3.4,2
				c-0.4,0.5-0.7,0-1.2-0.4c-1.1-0.8-2.2-1.6-3.3-2.5c1.9-2.3,4.5-4,7.6-4.1c3.3-0.1,6.3,1.4,8.9,3.2c2.5,1.8,5.2,4,6.4,7
				c1.1,2.7,0.3,5.4-1.4,7.7c-3.2,4.3-6.4,8.5-9.7,12.8c-0.1,0.1-0.1,0.2-0.2,0.2c-0.5,0.7-1.4,1.7-1.5,2.6
				c-0.2,1.1,1.4,1.7,2.1,2.1C73.7,322.5,72.8,323.5,72,324.6C71,324.5,72,324.6,72,324.6z M75.1,306.4c-2.2,0-4.3-1.4-6.1-2.5
				c-2-1.2-4.2-2.6-6.6-2.9c-2.2-0.3-4.1,0.8-5.2,2.8c-1.3,2.3,0.2,4.7,1.9,6.2c3.3,2.9,9.2,4.7,12.5,0.9
				C72.9,309.5,74,307.9,75.1,306.4C74.3,306.4,75.1,306.4,75.1,306.4z"/>
			<path d="M110.3,294.6l-18.9,39.8l-4.7-2.3l18.9-39.8L110.3,294.6L110.3,294.6z"/>
			<path d="M132.1,314.7l-1.3,4.5l-6.1-1.7c-1.1,3.8-2.2,7.7-3.2,11.5c-0.6,2.1-1.2,4.3-1.8,6.4c-0.1,0.4-0.2,0.8-0.3,1.1
				c-0.2,0.8-0.5,1.8,0.1,2.5c0.6,0.8,2,1.1,3,1.3l2.3,0.7l-1.3,4.5c-1.8-0.5-3.6-0.9-5.3-1.5c-1.6-0.5-3.3-1.3-4.1-2.9
				c-0.8-1.7-0.3-3.7,0.1-5.4l5.5-19.5l-5.2-1.5l1.3-4.5l5.2,1.5l2.6-9.2l5,1.4l-2.6,9.2L132.1,314.7L132.1,314.7z"/>
			<path d="M150,317.2l-3.3,31.7l-5.2-0.5l3.3-31.7L150,317.2L150,317.2z M145.4,311l0.7-6.4l5.2,0.6l-0.7,6.4L145.4,311L145.4,311z
				"/>
			<path d="M166.7,316.5l0.8,4.6c0.5-0.3,0.8-1.4,1.1-1.9c0.5-0.7,1-1.4,1.7-2c1.3-1.3,3-2.2,4.8-2.7c4.2-1.2,9.2-0.7,11.4,3.5
				c1.9-4.6,6.3-6.9,11.1-7.2c2.4-0.1,5,0.3,6.9,1.9c1.7,1.5,2.6,3.6,3,5.8l3.7,23.1l-5.2,0.8c-0.9-5.4-1.7-10.8-2.6-16.2
				c-0.4-2.4-0.6-4.9-1.4-7.2c-2.2-6-11.3-3.4-13.1,1.6c-0.5,1.4-0.6,3-0.3,4.5l3.2,19.6l-5.2,0.8c-0.9-5.4-1.7-10.8-2.6-16.2
				c-0.4-2.3-0.6-4.7-1.3-6.9c-1.1-3.1-3.7-4.1-6.8-3.5c-3,0.6-5.3,2.7-6.3,5.5c-0.4,1.2-0.7,2.6-0.5,3.8l3.2,19.6l-5.2,0.8
				l-5.1-31.5L166.7,316.5L166.7,316.5z"/>
			<path d="M216.8,317.4c-1.1-6.7,2.3-12.6,8.2-15.7c5.8-3,12.5-2.4,17.3,2.1c4.5,4.3,7.5,11.3,6.2,17.6
				c-1.4,6.2-7.1,10.7-13.2,11.7C225.7,334.7,218.2,326.1,216.8,317.4C216.5,315.3,217.2,319.5,216.8,317.4z M226.9,325.4
				c2.1,2,4.9,3.2,7.9,2.9c3-0.3,5.8-2.1,7.3-4.7c2.9-5.1,0.3-12-3.6-15.8c-2.1-2-4.9-3.3-7.9-3c-3,0.3-5.8,2.1-7.3,4.7
				C220.4,314.6,223,321.6,226.9,325.4C228.1,326.5,225.8,324.3,226.9,325.4z"/>
			<path d="M249.7,286.4l4.3,5.2c0.2-0.1-0.4-2.8-0.4-3.3c-0.1-1.3,0-2.6,0.3-3.9c0.7-2.5,2.4-4.6,4.4-6.2c0.8,0.9,1.6,1.9,2.3,2.8
				c0.4,0.4,0.7,0.9,1.1,1.3c0.2,0.3-0.3,0.5-0.5,0.7c-0.6,0.5-1.1,1.1-1.6,1.6c-1.8,2.1-2.8,4.8-2.3,7.6c0.5,2.8,2.2,5.3,4,7.5
				l9.1,10.9l-4,3.4l-20.5-24.4L249.7,286.4L249.7,286.4z"/>
			<path d="M303,271.6c0.1,6-4.5,12.1-9.9,14.3c-6.2,2.5-13.5-0.6-18.1-5.1c-4.6-4.5-6.6-11.5-3.7-17.5c1.3-2.7,3.4-5.2,6-6.6
				c2.8-1.6,6.3-1.8,9.4-1.2c3.4,0.7,6.7,2.4,9.4,4.6c-3.2,4.3-6.3,8.5-9.5,12.8c-1.5,2-3,4-4.5,6c-0.1,0.1-0.2,0.2-0.3,0.3
				c-0.2,0.3,3.5,2,3.9,2.1c3,1,6.4,0.2,8.7-1.9c1.7-1.5,3.2-3.6,3.6-5.9c0.5-2.4-0.4-4.6-2-6.4c1-1.4,2.1-2.8,3.1-4.2
				C301.4,265.5,303,268.4,303,271.6C303,274.6,303,268.6,303,271.6z M285.8,260.4c-4.1-1-8.3,1-10.2,4.8c-2.1,4-0.7,8.6,2.6,11.4
				c3.6-4.9,7.3-9.8,10.9-14.7C288.1,261.2,287,260.7,285.8,260.4C284.6,260.1,287,260.7,285.8,260.4z"/>
		</g>
		<g>
			<path d="M40.8,119.5L15,115.3l0,0.1l20.7,16l-2.3,5.2L0,133.3l2.3-5.3l26.8,3.8l0-0.1L7.8,115.3l2.3-5.3l26.6,4.3l0-0.1l-21.1-17
				l2.2-5L43,114.4L40.8,119.5L40.8,119.5z"/>
			<path d="M68.3,80.8c-0.3,1.8-1.7,3.8-3.3,4.7c-1.8,1-3.6,0.2-5.1-1c1.1,6.1-2.7,13.2-8.4,15.7c-6.2,2.6-13-3.6-11.9-9.9
				c0.6-3.2,2.5-6.2,4.2-8.9c1.3-2,4.3-5.7,2.2-8.1c-2.3-2.7-5.6-2-7.9,0.3c-1.9,1.8-4.1,4.7-3.8,7.6c0.1,1.3,0.9,2.5,1.9,3.5
				c0.5,0.5-0.1,0.7-0.5,1.2c-0.9,1-1.7,2.1-2.6,3.1c-2.4-2.2-4-5.2-3.7-8.5c0.3-3.3,2.1-6.2,4.1-8.7c2-2.4,4.4-4.9,7.5-5.6
				c2.6-0.6,4.9,0.4,6.9,2.1c4.1,3.4,8.2,6.9,12.4,10.3c0,0,0.1,0.1,0.1,0.1c0.7,0.6,1.6,1.5,2.5,1.7c1.1,0.2,1.8-1.3,2.2-2
				C66.2,79.1,67.2,79.9,68.3,80.8C68.1,81.9,68.3,80.8,68.3,80.8z M50.3,76.9c-0.1,2.2-1.7,4.2-2.8,5.9c-1.3,2-2.8,4.1-3.2,6.5
				c-0.4,2.2,0.6,4.2,2.5,5.3c2.3,1.4,4.7,0.1,6.3-1.6c3-3.1,5.2-8.9,1.5-12.5C53.2,79.2,51.7,78.1,50.3,76.9
				C50.2,77.7,50.3,76.9,50.3,76.9z"/>
			<path d="M49.6,40l28.2,33.9l-4,3.4L45.5,43.4L49.6,40L49.6,40z"/>
			<path d="M68.1,26.8l12.9,22.7l5.8-19.3l6.1-3.5L87.6,43l21.8,11l-5.8,3.3l-17.7-9.1l-2,6.4l6,10.5l-4.6,2.6L63.5,29.4L68.1,26.8
				L68.1,26.8z"/>
			<path d="M140.2,13.7l0.8,4.6l-6.3,1.1c0.7,3.9,1.4,7.9,2.1,11.8c0.4,2.2,0.8,4.4,1.2,6.5c0.1,0.4,0.1,0.8,0.2,1.2
				c0.1,0.8,0.3,1.8,1.1,2.2c0.9,0.4,2.3,0.1,3.2-0.1l2.4-0.4l0.8,4.6c-1.8,0.3-3.6,0.7-5.5,0.9c-1.6,0.2-3.6,0.3-4.9-0.8
				c-1.4-1.2-1.9-3.2-2.2-4.9l-3.6-20l-5.3,1l-0.8-4.6l5.3-1l-1.7-9.4l5.2-0.9l1.7,9.4L140.2,13.7L140.2,13.7z"/>
			<path d="M159.7,0.2L159.1,17c0.3-0.1,0.4-0.6,0.6-0.9c0.3-0.5,0.7-0.9,1.1-1.3c1-0.9,2.2-1.6,3.5-2.1c2.6-0.9,5.5-1,8.2-0.5
				c2.3,0.5,4.5,1.7,5.9,3.7c1.5,2.3,1.8,5.2,1.7,7.9l-0.7,21l-5.2-0.2c0.2-5.5,0.3-10.9,0.5-16.4c0.1-2.1,0.3-4.2,0.1-6.3
				c-0.6-6.3-9-7-13-3.4c-2.1,1.9-2.9,4.8-3,7.5l-0.6,18l-5.2-0.2l1.4-44L159.7,0.2L159.7,0.2z"/>
			<path d="M207.3,49.6c-5.6,2.3-13,0.3-17-4.1c-4.3-4.7-4.3-12.2-2.1-17.9c2.2-5.7,7.3-10.3,13.6-10.5c6.2-0.3,12,3.3,14,9.2
				c1.4,4.1,1,8.6-0.2,12.7c-5.1-1.4-10.3-2.8-15.4-4.1c-2.4-0.7-4.8-1.3-7.3-2c-0.1,0-0.3-0.1-0.4-0.1c-0.4-0.1-0.6,4.3-0.5,4.7
				c0.3,3,2.2,5.7,4.9,7c2.1,1.1,4.8,1.7,7.2,1.1c2.2-0.5,3.9-2.1,4.9-4.1c1.7,0.4,3.3,0.9,5,1.3C212.5,45.9,210.3,48.4,207.3,49.6
				C204.5,50.8,210.1,48.5,207.3,49.6z M211.4,29.5c-0.6-4.2-4-7.3-8.2-7.8c-4.5-0.5-8.2,2.5-9.6,6.6c5.9,1.6,11.8,3.2,17.7,4.8
				C211.5,31.9,211.6,30.7,211.4,29.5C211.2,28.3,211.6,30.7,211.4,29.5z"/>
			<path d="M252.1,78.5l2.7-3.4c-0.4-0.1-1.1,0.3-1.5,0.5c-0.7,0.2-1.5,0.3-2.2,0.3c-1.5,0-2.9-0.5-4.3-1.2c-2.6-1.2-5-3.2-6.6-5.6
				c-3.7-5.5-2.2-12.5,1.5-17.6c3.7-5.2,9.5-9.3,16.1-8c5.9,1.1,12.1,6.9,11.3,13.3l0.1,0.1l10.1-12.9l4.1,3.2l-27.1,34.7
				L252.1,78.5L252.1,78.5z M244.2,57.9c-1.1,2.7-1.3,5.7,0,8.4c1.2,2.5,3.9,4.6,6.6,5.1c6.2,1.2,11.6-4.4,13.7-9.7
				c1.1-2.7,1.2-5.7-0.2-8.3c-1.3-2.4-3.9-4.5-6.6-5C251.8,47.3,246.3,52.9,244.2,57.9C243.7,59.3,244.8,56.6,244.2,57.9z"/>
			<path d="M278.6,72.6c6.4-2.2,12.8,0.1,16.9,5.4c4.1,5.4,4.5,12.4,0.5,18c-3.7,5.1-10.2,9.1-16.6,8.5c-6.2-0.6-11.5-5.8-13.3-11.6
				C263.4,83.8,270.5,75.4,278.6,72.6C280.6,71.8,276.6,73.3,278.6,72.6z M272.5,83.9c-3.4,5-1.8,12.1,4,14.5
				c5.6,2.3,12.2-1.5,15.3-6.2c1.7-2.6,2.4-5.7,1.5-8.6c-0.8-2.6-2.9-4.9-5.4-5.9C282.3,75.4,275.6,79.3,272.5,83.9
				C271.6,85.2,273.4,82.6,272.5,83.9z"/>
			<path d="M282.6,141.5c-4.3-1.6-7-6.1-8.3-10.3c-1.7-5.2-1.4-11.8,4.2-14.4c0.6,1.4,1.1,2.8,1.7,4.2c0.1,0.2,0.2,0.4,0.2,0.6
				c-0.1-0.1-1.4,1.1-1.5,1.2c-1.1,1.4-1.2,3.3-1,5c0.4,3.3,2,6.8,5.1,8.3c3.3,1.7,7.2,0.7,10.5-0.6l1.9-0.8c-0.3-0.2-1-0.2-1.4-0.3
				c-0.7-0.1-1.3-0.3-1.9-0.6c-1.4-0.6-2.5-1.6-3.5-2.7c-2-2.3-3.2-5.4-3.4-8.5c-0.3-6.5,4.4-11.6,10-14.1c5.8-2.6,12.9-3,18,1.4
				c4.6,3.9,6.6,11.6,2.5,16.5l0,0.1l4.2-1.7l1.9,4.6c-9.1,3.7-18.3,7.5-27.4,11.1C290.7,142,286.4,142.9,282.6,141.5
				C279.3,140.2,285.9,142.7,282.6,141.5z M293.4,129.9c4.7,3.6,12,1.5,16.3-1.8c2.2-1.7,3.8-4.1,3.9-6.9c0.1-2.6-1.2-5.6-3.2-7.2
				c-4.8-4-12.1-1.5-16.5,1.9c-2.1,1.7-3.8,4.1-3.9,6.9C290,125.4,291.3,128.3,293.4,129.9C294.5,130.7,292.3,129,293.4,129.9z"/>
		</g>
	</g>
</g>
<g id="Layer_4">
	<g id="mark_1_">
		<circle id="circle_1_" fill="none" stroke="#000000" stroke-width="5" stroke-miterlimit="10" cx="-580.1" cy="915.1" r="116.8"/>
		<path id="ground_1_" d="M-490.1,992.2c0,2.5-2.1,4.6-4.6,4.6h-112.8c-2.6,0-4.6-2.1-4.6-4.6l0,0c0-2.5,2.1-4.6,4.6-4.6h112.8
			C-492.2,987.6-490.1,989.6-490.1,992.2L-490.1,992.2z"/>
		<g id="walker_1_">
			<path d="M-628.2,923.7c3.2-1.8,6.8-1.5,8.1,0.7l33.1,58.4c1.2,2.2-0.4,5.4-3.6,7.3l0,0c-3.2,1.8-6.8,1.5-8.1-0.7l-33.1-58.4
				C-633,928.8-631.4,925.5-628.2,923.7L-628.2,923.7z"/>
			<path d="M-637.8,930.2c3.4,1.4,5.5,4.3,4.6,6.5l-23.8,59.7c-0.9,2.2-4.4,2.9-7.8,1.6l0,0c-3.4-1.4-5.5-4.3-4.6-6.5l23.8-59.7
				C-644.7,929.5-641.2,928.8-637.8,930.2L-637.8,930.2z"/>
			<path d="M-629.3,865.3c2.7-1.3,5.5-1,6.4,0.7l22.9,46.1c0.9,1.7-0.6,4.2-3.3,5.5l0,0c-2.7,1.3-5.5,1-6.4-0.7l-22.9-46.1
				C-633.4,869.2-631.9,866.7-629.3,865.3L-629.3,865.3z"/>
			<path d="M-639.6,863.8c2.6,1.4,4,4,3.1,5.7l-24.6,45.2c-0.9,1.7-3.8,1.9-6.4,0.5l0,0c-2.6-1.4-4-4-3.1-5.7l24.6-45.2
				C-645.1,862.6-642.2,862.4-639.6,863.8L-639.6,863.8z"/>
			<path d="M-619.9,934c0,1.3-1.2,2.4-2.6,2.4h-20.2c-1.4,0-2.6-1.1-2.6-2.4v-69.2c0-1.4,1.2-2.4,2.6-2.4h20.2
				c1.5,0,2.6,1.1,2.6,2.4V934z"/>
			<circle cx="-632.4" cy="846.3" r="11"/>
		</g>
		<g id="dog_1_">
			<path d="M-572.8,967.4c1.3-2.8,0.4-6-2-7.1l-0.3-0.1c-2.4-1.1-5.5,0.2-6.8,3l-10.4,22.1c-1.3,2.8-0.4,6,2,7.1l0.3,0.1
				c2.4,1.1,5.5-0.2,6.8-3L-572.8,967.4z"/>
			<path d="M-557.5,963.9c-1.5-2.9-4.7-4.2-7.1-3l-0.3,0.1c-2.4,1.3-3.1,4.6-1.5,7.6l12.1,23c1.5,2.9,4.7,4.2,7.1,3l0.3-0.1
				c2.4-1.3,3.1-4.6,1.5-7.6L-557.5,963.9z"/>
			<path d="M-524.4,966.2c0-2.7-2.2-4.9-4.9-4.9h-0.3c-2.7,0-4.9,2.2-4.9,4.9v21.3c0,2.7,2.2,4.9,4.9,4.9h0.3c2.7,0,4.9-2.2,4.9-4.9
				V966.2z"/>
			<path d="M-515.3,964.4c-1.2-2.9-4.2-4.3-6.7-3.3l-0.3,0.1c-2.5,1-3.6,4.2-2.4,7l9.3,22.6c1.2,2.9,4.2,4.3,6.7,3.3l0.3-0.1
				c2.5-1,3.6-4.2,2.4-7L-515.3,964.4z"/>
			<path d="M-514.3,962.3c0,2.8-2.2,5-4.9,5h-59.9c-2.7,0-4.9-2.2-4.9-5v-15.6c0-2.8,2.2-5,4.9-5h59.9c2.7,0,4.9,2.3,4.9,5V962.3z"
				/>
			<path d="M-587.3,933.3c-1.6-1.7-3.8-2.3-4.9-1.2l-0.1,0.1c-1.1,1-0.7,3.2,0.9,4.9l12.5,13.5c1.6,1.7,3.8,2.3,4.9,1.2l0.1-0.1
				c1.1-1,0.7-3.2-0.9-4.9L-587.3,933.3z"/>
			<path d="M-494.3,941.4c0,3.8-3.1,6.9-6.9,6.9H-513c-3.8,0-6.9-3.1-6.9-6.9l0,0c0-3.8,3.1-6.9,6.9-6.9h11.8
				C-497.4,934.5-494.3,937.6-494.3,941.4L-494.3,941.4z"/>
			<path d="M-511.5,940c2.3,2.9,2.8,6.3,1.1,7.7l-5.2,4.2c-1.7,1.3-4.9,0.1-7.2-2.8l0,0c-2.3-2.9-2.8-6.3-1.1-7.7l5.2-4.1
				C-517.1,935.8-513.8,937.1-511.5,940L-511.5,940z"/>
			<polygon points="-518.5,939.4 -512.8,928.4 -507.1,939.4 			"/>
			<path d="M-509.8,935.8c0,4-1.3,7.3-3,7.3c-1.6,0-3-3.3-3-7.3c0-4,1.3-7.3,3-7.3C-511.1,928.5-509.8,931.8-509.8,935.8z"/>
			<polygon points="-512.7,939.4 -506.8,928.4 -501,939.4 			"/>
			<ellipse cx="-506.9" cy="935.8" rx="2.9" ry="7.3"/>
		</g>
	</g>
	<text transform="matrix(1 0 0 1 -711.9131 786.0542)"><tspan x="0" y="0" font-family="'HelveticaNeue'" font-size="42" letter-spacing="1">w</tspan><tspan x="32.9" y="0" font-family="'HelveticaNeue'" font-size="42" letter-spacing="2">alk </tspan><tspan x="106.6" y="0" font-family="'HelveticaNeue'" font-size="42" letter-spacing="2">t</tspan><tspan x="122.4" y="0" font-family="'HelveticaNeue'" font-size="42" letter-spacing="1">h</tspan><tspan x="146.8" y="0" font-family="'HelveticaNeue'" font-size="42" letter-spacing="2">e </tspan><tspan x="185.2" y="0" font-family="'HelveticaNeue'" font-size="42" letter-spacing="1">d</tspan><tspan x="211.2" y="0" font-family="'HelveticaNeue'" font-size="42" letter-spacing="2">og</tspan></text>
	<text transform="matrix(1 0 0 1 -665.2305 1073.0547)"><tspan x="0" y="0" font-family="'HelveticaNeue'" font-size="42">baltimo</tspan><tspan x="139.3" y="0" font-family="'HelveticaNeue'" font-size="42">r</tspan><tspan x="152.5" y="0" font-family="'HelveticaNeue'" font-size="42">e</tspan></text>
</g>
<g id="Layer_5">
	<g id="mark_3_">
		
			<circle id="circle_3_" fill="none" stroke="#000000" stroke-width="5" stroke-miterlimit="10" cx="-580.1" cy="1285.1" r="116.8"/>
		<path id="ground_3_" d="M-490.1,1362.2c0,2.5-2.1,4.6-4.6,4.6h-112.8c-2.6,0-4.6-2.1-4.6-4.6l0,0c0-2.5,2.1-4.6,4.6-4.6h112.8
			C-492.2,1357.6-490.1,1359.6-490.1,1362.2L-490.1,1362.2z"/>
		<g id="walker_3_">
			<path d="M-628.2,1293.7c3.2-1.8,6.8-1.5,8.1,0.7l33.1,58.4c1.2,2.2-0.4,5.4-3.6,7.3l0,0c-3.2,1.8-6.8,1.5-8.1-0.7l-33.1-58.4
				C-633,1298.8-631.4,1295.5-628.2,1293.7L-628.2,1293.7z"/>
			<path d="M-637.8,1300.2c3.4,1.4,5.5,4.3,4.6,6.5l-23.8,59.7c-0.9,2.2-4.4,2.9-7.8,1.6l0,0c-3.4-1.4-5.5-4.3-4.6-6.5l23.8-59.7
				C-644.7,1299.5-641.2,1298.8-637.8,1300.2L-637.8,1300.2z"/>
			<path d="M-629.3,1235.3c2.7-1.3,5.5-1,6.4,0.7l22.9,46.1c0.9,1.7-0.6,4.2-3.3,5.5l0,0c-2.7,1.3-5.5,1-6.4-0.7l-22.9-46.1
				C-633.4,1239.2-631.9,1236.7-629.3,1235.3L-629.3,1235.3z"/>
			<path d="M-639.6,1233.8c2.6,1.4,4,4,3.1,5.7l-24.6,45.2c-0.9,1.7-3.8,1.9-6.4,0.5l0,0c-2.6-1.4-4-4-3.1-5.7l24.6-45.2
				C-645.1,1232.6-642.2,1232.4-639.6,1233.8L-639.6,1233.8z"/>
			<path d="M-619.9,1304c0,1.3-1.2,2.4-2.6,2.4h-20.2c-1.4,0-2.6-1.1-2.6-2.4v-69.2c0-1.4,1.2-2.4,2.6-2.4h20.2
				c1.5,0,2.6,1.1,2.6,2.4V1304z"/>
			<circle cx="-632.4" cy="1216.3" r="11"/>
		</g>
		<g id="dog_3_">
			<path d="M-572.8,1337.4c1.3-2.8,0.4-6-2-7.1l-0.3-0.1c-2.4-1.1-5.5,0.2-6.8,3l-10.4,22.1c-1.3,2.8-0.4,6,2,7.1l0.3,0.1
				c2.4,1.1,5.5-0.2,6.8-3L-572.8,1337.4z"/>
			<path d="M-557.5,1333.9c-1.5-2.9-4.7-4.2-7.1-3l-0.3,0.1c-2.4,1.3-3.1,4.6-1.5,7.6l12.1,23c1.5,2.9,4.7,4.2,7.1,3l0.3-0.1
				c2.4-1.3,3.1-4.6,1.5-7.6L-557.5,1333.9z"/>
			<path d="M-524.4,1336.2c0-2.7-2.2-4.9-4.9-4.9h-0.3c-2.7,0-4.9,2.2-4.9,4.9v21.3c0,2.7,2.2,4.9,4.9,4.9h0.3
				c2.7,0,4.9-2.2,4.9-4.9V1336.2z"/>
			<path d="M-515.3,1334.4c-1.2-2.9-4.2-4.3-6.7-3.3l-0.3,0.1c-2.5,1-3.6,4.2-2.4,7l9.3,22.6c1.2,2.9,4.2,4.3,6.7,3.3l0.3-0.1
				c2.5-1,3.6-4.2,2.4-7L-515.3,1334.4z"/>
			<path d="M-514.3,1332.3c0,2.8-2.2,5-4.9,5h-59.9c-2.7,0-4.9-2.3-4.9-5v-15.6c0-2.8,2.2-5,4.9-5h59.9c2.7,0,4.9,2.3,4.9,5V1332.3z
				"/>
			<path d="M-587.3,1303.3c-1.6-1.7-3.8-2.3-4.9-1.2l-0.1,0.1c-1.1,1-0.7,3.2,0.9,4.9l12.5,13.5c1.6,1.7,3.8,2.3,4.9,1.2l0.1-0.1
				c1.1-1,0.7-3.2-0.9-4.9L-587.3,1303.3z"/>
			<path d="M-494.3,1311.4c0,3.8-3.1,6.9-6.9,6.9H-513c-3.8,0-6.9-3.1-6.9-6.9l0,0c0-3.8,3.1-6.9,6.9-6.9h11.8
				C-497.4,1304.5-494.3,1307.6-494.3,1311.4L-494.3,1311.4z"/>
			<path d="M-511.5,1310c2.3,2.9,2.8,6.3,1.1,7.7l-5.2,4.2c-1.7,1.3-4.9,0.1-7.2-2.8l0,0c-2.3-2.9-2.8-6.3-1.1-7.7l5.2-4.1
				C-517.1,1305.8-513.8,1307.1-511.5,1310L-511.5,1310z"/>
			<polygon points="-518.5,1309.4 -512.8,1298.4 -507.1,1309.4 			"/>
			<path d="M-509.8,1305.8c0,4-1.3,7.3-3,7.3c-1.6,0-3-3.3-3-7.3c0-4,1.3-7.3,3-7.3C-511.1,1298.5-509.8,1301.8-509.8,1305.8z"/>
			<polygon points="-512.7,1309.4 -506.8,1298.4 -501,1309.4 			"/>
			<ellipse cx="-506.9" cy="1305.8" rx="2.9" ry="7.3"/>
		</g>
	</g>
	<text transform="matrix(1 0 0 1 -712.3438 1155.9502)"><tspan x="0" y="0" font-family="'Aleo-Regular'" font-size="42" letter-spacing="1">w</tspan><tspan x="37.5" y="0" font-family="'Aleo-Regular'" font-size="42" letter-spacing="2">alk </tspan><tspan x="113" y="0" font-family="'Aleo-Regular'" font-size="42" letter-spacing="2">t</tspan><tspan x="130.8" y="0" font-family="'Aleo-Regular'" font-size="42" letter-spacing="1">h</tspan><tspan x="158.1" y="0" font-family="'Aleo-Regular'" font-size="42" letter-spacing="2">e </tspan><tspan x="192" y="0" font-family="'Aleo-Regular'" font-size="42" letter-spacing="1">d</tspan><tspan x="216.8" y="0" font-family="'Aleo-Regular'" font-size="42" letter-spacing="2">og</tspan></text>
	<text transform="matrix(1 0 0 1 -665.2305 1443.3818)"><tspan x="0" y="0" font-family="'Aleo-Regular'" font-size="42">baltimo</tspan><tspan x="144.5" y="0" font-family="'Aleo-Regular'" font-size="42">r</tspan><tspan x="161.8" y="0" font-family="'Aleo-Regular'" font-size="42">e</tspan></text>
</g>
<g id="Layer_6">
	<g id="mark_5_">
		<circle id="circle_5_" fill="none" stroke="#000000" stroke-width="5" stroke-miterlimit="10" cx="-647" cy="1587" r="95"/>
		<path id="ground_5_" d="M-573.8,1649.7c0,2.1-1.7,3.7-3.8,3.7h-91.8c-2.1,0-3.8-1.7-3.8-3.7l0,0c0-2.1,1.7-3.7,3.8-3.7h91.8
			C-575.4,1646-573.8,1647.7-573.8,1649.7L-573.8,1649.7z"/>
		<g id="walker_5_">
			<path d="M-686.1,1594.1c2.6-1.5,5.5-1.2,6.6,0.5l26.9,47.5c1,1.8-0.3,4.4-2.9,5.9l0,0c-2.6,1.5-5.5,1.2-6.6-0.6L-689,1600
				C-690,1598.2-688.7,1595.5-686.1,1594.1L-686.1,1594.1z"/>
			<path d="M-693.8,1599.3c2.8,1.1,4.5,3.5,3.7,5.3l-19.4,48.5c-0.7,1.8-3.6,2.4-6.4,1.3l0,0c-2.8-1.1-4.5-3.5-3.7-5.3l19.4-48.5
				C-699.5,1598.8-696.6,1598.2-693.8,1599.3L-693.8,1599.3z"/>
			<path d="M-686.9,1546.6c2.2-1.1,4.5-0.8,5.2,0.6l18.6,37.5c0.7,1.4-0.5,3.4-2.7,4.5l0,0c-2.2,1.1-4.5,0.8-5.2-0.6l-18.6-37.5
				C-690.3,1549.7-689.1,1547.7-686.9,1546.6L-686.9,1546.6z"/>
			<path d="M-695.3,1545.3c2.1,1.2,3.3,3.2,2.5,4.6l-20,36.7c-0.8,1.4-3.1,1.5-5.2,0.4l0,0c-2.1-1.2-3.3-3.2-2.5-4.6l20-36.7
				C-699.8,1544.3-697.5,1544.2-695.3,1545.3L-695.3,1545.3z"/>
			<path d="M-679.4,1602.5c0,1.1-1,2-2.1,2h-16.4c-1.2,0-2.1-0.9-2.1-2v-56.3c0-1.1,1-2,2.1-2h16.4c1.2,0,2.1,0.9,2.1,2V1602.5z"/>
			<path d="M-680.6,1531.1c0,4.9-4,8.9-8.9,8.9c-4.9,0-8.9-4-8.9-8.9c0-4.9,4-8.9,8.9-8.9C-684.5,1522.2-680.6,1526.2-680.6,1531.1z
				"/>
		</g>
		<g id="dog_5_">
			<path d="M-641,1629.6c1.1-2.3,0.3-4.9-1.7-5.8l-0.2-0.1c-2-0.9-4.5,0.1-5.5,2.4l-8.5,18c-1.1,2.3-0.3,4.9,1.7,5.8l0.2,0.1
				c2,0.9,4.5-0.1,5.5-2.4L-641,1629.6z"/>
			<path d="M-628.5,1626.8c-1.2-2.4-3.8-3.5-5.8-2.4l-0.2,0.1c-1.9,1-2.5,3.8-1.3,6.1l9.9,18.7c1.2,2.4,3.8,3.5,5.8,2.4l0.2-0.1
				c1.9-1,2.5-3.8,1.3-6.1L-628.5,1626.8z"/>
			<path d="M-601.6,1628.6c0-2.2-1.8-4-4-4h-0.2c-2.2,0-4,1.8-4,4v17.4c0,2.2,1.8,4,4,4h0.2c2.2,0,4-1.8,4-4V1628.6z"/>
			<path d="M-594.2,1627.1c-1-2.3-3.4-3.5-5.4-2.7l-0.2,0.1c-2,0.8-2.9,3.4-1.9,5.7l7.6,18.3c1,2.3,3.4,3.5,5.4,2.7l0.2-0.1
				c2-0.8,2.9-3.4,1.9-5.7L-594.2,1627.1z"/>
			<path d="M-593.4,1625.4c0,2.3-1.8,4.1-4,4.1h-48.7c-2.2,0-4-1.8-4-4.1v-12.7c0-2.3,1.8-4.1,4-4.1h48.7c2.2,0,4,1.8,4,4.1V1625.4z
				"/>
			<path d="M-652.8,1601.9c-1.3-1.4-3.1-1.8-4-1l-0.1,0.1c-0.9,0.8-0.6,2.6,0.7,4l10.1,11c1.3,1.4,3.1,1.8,4,1l0.1-0.1
				c0.9-0.8,0.6-2.6-0.7-4L-652.8,1601.9z"/>
			<path d="M-577.1,1608.4c0,3.1-2.5,5.6-5.6,5.6h-9.6c-3.1,0-5.6-2.5-5.6-5.6l0,0c0-3.1,2.5-5.6,5.6-5.6h9.6
				C-579.7,1602.8-577.1,1605.3-577.1,1608.4L-577.1,1608.4z"/>
			<path d="M-591.2,1607.3c1.9,2.4,2.3,5.1,0.9,6.2l-4.2,3.4c-1.4,1.1-4,0.1-5.9-2.3l0,0c-1.9-2.4-2.3-5.1-0.9-6.2l4.2-3.4
				C-595.7,1603.9-593.1,1604.9-591.2,1607.3L-591.2,1607.3z"/>
			<polygon points="-596.8,1606.8 -592.2,1597.9 -587.5,1606.8 			"/>
			<path d="M-589.7,1603.9c0,3.3-1.1,5.9-2.4,5.9c-1.3,0-2.4-2.7-2.4-5.9s1.1-5.9,2.4-5.9C-590.8,1597.9-589.7,1600.6-589.7,1603.9z
				"/>
			<polygon points="-592.1,1606.8 -587.3,1597.9 -582.6,1606.8 			"/>
			<ellipse cx="-587.4" cy="1603.9" rx="2.4" ry="5.9"/>
		</g>
	</g>
	<g>
		<text transform="matrix(1 0 0 1 -537.9214 1583.5176)"><tspan x="0" y="0" font-family="'HelveticaNeue'" font-size="79.4047" letter-spacing="1">w</tspan><tspan x="62.2" y="0" font-family="'HelveticaNeue'" font-size="79.4047" letter-spacing="3">alk </tspan><tspan x="201.6" y="0" font-family="'HelveticaNeue'" font-size="79.4047" letter-spacing="4">t</tspan><tspan x="231.4" y="0" font-family="'HelveticaNeue'" font-size="79.4047" letter-spacing="1">h</tspan><tspan x="277.5" y="0" font-family="'HelveticaNeue'" font-size="79.4047" letter-spacing="3">e </tspan><tspan x="350.2" y="0" font-family="'HelveticaNeue'" font-size="79.4047" letter-spacing="1">d</tspan><tspan x="399.2" y="0" font-family="'HelveticaNeue'" font-size="79.4047" letter-spacing="3">og</tspan></text>
		<text transform="matrix(1 0 0 1 -537.9214 1634.377)"><tspan x="0" y="0" font-family="'HelveticaNeue'" font-size="50.2897">baltimo</tspan><tspan x="166.8" y="0" font-family="'HelveticaNeue'" font-size="50.2897">r</tspan><tspan x="182.6" y="0" font-family="'HelveticaNeue'" font-size="50.2897">e</tspan></text>
	</g>
</g>
<g id="Layer_7">
	<g id="mark_6_">
		<circle id="circle_6_" fill="none" stroke="#000000" stroke-width="5" stroke-miterlimit="10" cx="-647" cy="1820.9" r="95"/>
		<path id="ground_6_" d="M-573.8,1883.7c0,2.1-1.7,3.7-3.8,3.7h-91.8c-2.1,0-3.8-1.7-3.8-3.7l0,0c0-2.1,1.7-3.7,3.8-3.7h91.8
			C-575.4,1879.9-573.8,1881.6-573.8,1883.7L-573.8,1883.7z"/>
		<g id="walker_6_">
			<path d="M-686.1,1828c2.6-1.5,5.5-1.2,6.6,0.5l26.9,47.5c1,1.8-0.3,4.4-2.9,5.9l0,0c-2.6,1.5-5.5,1.2-6.6-0.6l-26.9-47.5
				C-690,1832.1-688.7,1829.5-686.1,1828L-686.1,1828z"/>
			<path d="M-693.8,1833.2c2.8,1.1,4.5,3.5,3.7,5.3l-19.4,48.5c-0.7,1.8-3.6,2.4-6.4,1.3l0,0c-2.8-1.1-4.5-3.5-3.7-5.3l19.4-48.5
				C-699.5,1832.7-696.6,1832.1-693.8,1833.2L-693.8,1833.2z"/>
			<path d="M-686.9,1780.5c2.2-1.1,4.5-0.8,5.2,0.6l18.6,37.5c0.7,1.4-0.5,3.4-2.7,4.5l0,0c-2.2,1.1-4.5,0.8-5.2-0.6l-18.6-37.5
				C-690.3,1783.6-689.1,1781.6-686.9,1780.5L-686.9,1780.5z"/>
			<path d="M-695.3,1779.2c2.1,1.2,3.3,3.2,2.5,4.6l-20,36.7c-0.8,1.4-3.1,1.5-5.2,0.4l0,0c-2.1-1.2-3.3-3.2-2.5-4.6l20-36.7
				C-699.8,1778.2-697.5,1778.1-695.3,1779.2L-695.3,1779.2z"/>
			<path d="M-679.4,1836.4c0,1.1-1,2-2.1,2h-16.4c-1.2,0-2.1-0.9-2.1-2v-56.3c0-1.1,1-2,2.1-2h16.4c1.2,0,2.1,0.9,2.1,2V1836.4z"/>
			<path d="M-680.6,1765c0,4.9-4,8.9-8.9,8.9c-4.9,0-8.9-4-8.9-8.9c0-4.9,4-8.9,8.9-8.9C-684.5,1756.1-680.6,1760.1-680.6,1765z"/>
		</g>
		<g id="dog_6_">
			<path d="M-641,1863.5c1.1-2.3,0.3-4.9-1.7-5.8l-0.2-0.1c-2-0.9-4.5,0.1-5.5,2.4l-8.5,18c-1.1,2.3-0.3,4.9,1.7,5.8l0.2,0.1
				c2,0.9,4.5-0.1,5.5-2.4L-641,1863.5z"/>
			<path d="M-628.5,1860.7c-1.2-2.4-3.8-3.5-5.8-2.4l-0.2,0.1c-1.9,1-2.5,3.8-1.3,6.1l9.9,18.7c1.2,2.4,3.8,3.5,5.8,2.4l0.2-0.1
				c1.9-1,2.5-3.8,1.3-6.1L-628.5,1860.7z"/>
			<path d="M-601.6,1862.5c0-2.2-1.8-4-4-4h-0.2c-2.2,0-4,1.8-4,4v17.4c0,2.2,1.8,4,4,4h0.2c2.2,0,4-1.8,4-4V1862.5z"/>
			<path d="M-594.2,1861c-1-2.3-3.4-3.5-5.4-2.7l-0.2,0.1c-2,0.8-2.9,3.4-1.9,5.7l7.6,18.3c1,2.3,3.4,3.5,5.4,2.7l0.2-0.1
				c2-0.8,2.9-3.4,1.9-5.7L-594.2,1861z"/>
			<path d="M-593.4,1859.4c0,2.3-1.8,4.1-4,4.1h-48.7c-2.2,0-4-1.8-4-4.1v-12.7c0-2.3,1.8-4.1,4-4.1h48.7c2.2,0,4,1.8,4,4.1V1859.4z
				"/>
			<path d="M-652.8,1835.8c-1.3-1.4-3.1-1.8-4-1l-0.1,0.1c-0.9,0.8-0.6,2.6,0.7,4l10.1,11c1.3,1.4,3.1,1.8,4,1l0.1-0.1
				c0.9-0.8,0.6-2.6-0.7-4L-652.8,1835.8z"/>
			<path d="M-577.1,1842.4c0,3.1-2.5,5.6-5.6,5.6h-9.6c-3.1,0-5.6-2.5-5.6-5.6l0,0c0-3.1,2.5-5.6,5.6-5.6h9.6
				C-579.7,1836.8-577.1,1839.3-577.1,1842.4L-577.1,1842.4z"/>
			<path d="M-591.2,1841.2c1.9,2.4,2.3,5.1,0.9,6.2l-4.2,3.4c-1.4,1.1-4,0.1-5.9-2.3l0,0c-1.9-2.4-2.3-5.1-0.9-6.2l4.2-3.4
				C-595.7,1837.9-593.1,1838.9-591.2,1841.2L-591.2,1841.2z"/>
			<polygon points="-596.8,1840.7 -592.2,1831.8 -587.5,1840.7 			"/>
			<path d="M-589.7,1837.8c0,3.3-1.1,5.9-2.4,5.9c-1.3,0-2.4-2.7-2.4-5.9s1.1-5.9,2.4-5.9C-590.8,1831.9-589.7,1834.5-589.7,1837.8z
				"/>
			<polygon points="-592.1,1840.7 -587.3,1831.8 -582.6,1840.7 			"/>
			<ellipse cx="-587.4" cy="1837.8" rx="2.4" ry="5.9"/>
		</g>
	</g>
	<g>
		<text transform="matrix(1 0 0 1 -539.7358 1825.0117)"><tspan x="0" y="0" font-family="'Aleo-Regular'" font-size="79.4047" letter-spacing="1">w</tspan><tspan x="71" y="0" font-family="'Aleo-Regular'" font-size="79.4047" letter-spacing="3">alk </tspan><tspan x="213.7" y="0" font-family="'Aleo-Regular'" font-size="79.4047" letter-spacing="4">t</tspan><tspan x="247.3" y="0" font-family="'Aleo-Regular'" font-size="79.4047" letter-spacing="1">h</tspan><tspan x="298.9" y="0" font-family="'Aleo-Regular'" font-size="79.4047" letter-spacing="3">e </tspan><tspan x="363" y="0" font-family="'Aleo-Regular'" font-size="79.4047" letter-spacing="1">d</tspan><tspan x="409.8" y="0" font-family="'Aleo-Regular'" font-size="79.4047" letter-spacing="3">og</tspan></text>
		<text transform="matrix(1 0 0 1 -538.9214 1875.8711)"><tspan x="0" y="0" font-family="'Aleo-Regular'" font-size="50.2897">baltimo</tspan><tspan x="173" y="0" font-family="'Aleo-Regular'" font-size="50.2897">r</tspan><tspan x="193.8" y="0" font-family="'Aleo-Regular'" font-size="50.2897">e</tspan></text>
	</g>
</g>
</svg>
